<?xml version="1.0" encoding="utf-8"?>
<!-- Generator: Adobe Illustrator 21.1.0, SVG Export Plug-In . SVG Version: 6.00 Build 0)  -->
<svg version="1.1" id="Layer_1" xmlns="http://www.w3.org/2000/svg" xmlns:xlink="http://www.w3.org/1999/xlink" x="0px" y="0px"
	 width="304px" height="118px" viewBox="0 0 304 118" style="enable-background:new 0 0 304 118;" xml:space="preserve">
<style type="text/css">
	.st0{fill:#EF868C;}
	.st1{fill:#EF8187;}
	.st2{fill:#F3A0A3;}
	.st3{fill:#F2999D;}
	.st4{fill:#F19599;}
	.st5{fill:#F3A4A7;}
	.st6{fill:#F3A7AA;}
	.st7{fill:#F1979B;}
	.st8{fill:#1D1D1B;}
	.st9{fill:#EF848A;}
	.st10{fill:#F0878D;}
	.st11{fill:#F9D0CF;}
	.st12{fill:#F7C4C3;}
	.st13{fill:#F4AFB1;}
	.st14{fill:#FAE2E2;}
	.st15{fill:#F8D1D0;}
	.st16{fill:#FCEBEC;}
	.st17{fill:#F6B9BA;}
	.st18{fill:#F8CCCC;}
	.st19{fill:#F6BCBC;}
	.st20{fill:#F8C8C7;}
	.st21{fill:#FAD7D6;}
	.st22{fill:#F9D3D3;}
	.st23{fill:#F18F94;}
	.st24{fill:#F08C91;}
	.st25{fill:#FCEAEA;}
	.st26{fill:#FBE0E0;}
	.st27{fill:#F8CBCA;}
	.st28{fill:#F6BBBC;}
	.st29{fill:#F5B6B7;}
	.st30{fill:#FADAD9;}
	.st31{fill:#F8C9C8;}
	.st32{fill:#F5B1B2;}
	.st33{fill:#F4BCBC;}
	.st34{fill:#EDBEBE;}
	.st35{fill:#F5B2B3;}
	.st36{fill:#F8CCCB;}
	.st37{fill:#F7C0C1;}
	.st38{fill:#F4ACAD;}
	.st39{fill:#F7C3C2;}
	.st40{fill:#F8CFCE;}
	.st41{fill:#EF858B;}
	.st42{fill:#F09296;}
	.st43{fill:#F3AEB0;}
	.st44{fill:#F0B7B8;}
	.st45{fill:#F3A2A5;}
	.st46{fill:#F5B3B4;}
	.st47{fill:#F4A9AB;}
	.st48{fill:#F1969A;}
	.st49{fill:#F3A5A8;}
	.st50{fill:#F19095;}
	.st51{fill:#F19498;}
	.st52{fill:#F4ADAF;}
	.st53{fill:#F29B9F;}
	.st54{fill:#F5B5B6;}
	.st55{fill:#F3A3A6;}
	.st56{fill:#F19398;}
	.st57{fill:#F3A6A9;}
	.st58{fill:#F3A1A5;}
	.st59{fill:#F19297;}
	.st60{fill:#F5B3B5;}
	.st61{fill:#F6B8B9;}
	.st62{fill:#F6BABB;}
	.st63{fill:#F2989C;}
	.st64{fill:#EABFBF;}
	.st65{fill:#F6BEBF;}
	.st66{fill:#F08E93;}
	.st67{fill:#F6BEBE;}
	.st68{fill:#F5B0B2;}
	.st69{fill:#F7C1C2;}
	.st70{fill:#F7C3C3;}
	.st71{fill:#F7C4C4;}
	.st72{fill:#F9D5D4;}
	.st73{fill:#F0898F;}
	.st74{fill:#F29EA1;}
	.st75{fill:#F08D92;}
	.st76{fill:#F4AEB0;}
	.st77{fill:#F5B7B8;}
	.st78{fill:#F4A8AB;}
	.st79{fill:#F4AAAC;}
	.st80{fill:#F2A9AB;}
	.st81{fill:#F3A7A9;}
	.st82{fill:#F6BCBD;}
	.st83{fill:#F6BFBF;}
	.st84{fill:#F29DA1;}
	.st85{fill:#F4ACAE;}
	.st86{fill:#F7C0C0;}
	.st87{fill:#F3A6A8;}
	.st88{fill:#F5B1B3;}
	.st89{fill:#F5B2B4;}
	.st90{fill:#F8C7C7;}
	.st91{fill:#F4AAAD;}
	.st92{fill:#F29EA2;}
	.st93{fill:#F4ADB0;}
	.st94{fill:#F3A1A4;}
	.st95{fill:#F4ABAD;}
	.st96{fill:#F6BDBE;}
	.st97{fill:#F6B7B8;}
	.st98{fill:#F5B4B6;}
	.st99{fill:#393337;}
</style>
<g>
	<g>
		<path class="st0" d="M25.7,48.6v5c-0.2,4.7-0.1,9.5-0.1,14.2c0,0.9-0.1,1.7-0.5,2.4c-0.1,0.2-0.3,0.5-0.5,0.8
			c-2.4,2.9-3,6.9-5.4,9.8c-0.7,0.8-1.1,2.1-2.3,2.5c-1-0.9-2.2-1.6-3.6-2c-3.9-1-7-5.7-6.3-9.8c0.1-0.8,0.2-1.6,0.2-2.4
			c-0.2-5.8,0.7-11,4.1-16.2c3.8-5.9,8.5-10.3,14.5-13.6c0,2.8,0,5.5,0,8.2C25.2,47.9,25.4,48.3,25.7,48.6z"/>
		<path class="st1" d="M25.7,82.7l-0.2,0c-0.6,0.2-1.2,0.5-1.6,1c-0.4,0.3-0.7,0.7-1.1,0.9c-3.4,2.1-3.6,2.1-5.9-1.4
			c1.4-2.2,2.8-4.4,4.2-6.6c0.9-1.5,0.8-3.6,2.3-5c1-0.9,1.5-1.9,1.7-3c0.5-1.8,0.2-3.7,0.3-5.6c0.1-3.2-0.4-6.3,0.3-9.5
			C25.7,63.3,25.7,73,25.7,82.7z"/>
		<path class="st0" d="M25.5,82.7c-0.5,0.3-1.1,0.7-1.6,1C24.1,82.9,24.6,82.6,25.5,82.7z"/>
		<path class="st2" d="M25.7,48.6c-0.6-0.1-1.3-0.3-1.1-1c0.2-0.8,0.7-0.2,1.1-0.1C25.7,47.9,25.7,48.3,25.7,48.6z"/>
		<path class="st3" d="M15.9,64.4c-1.9,1.6-2.6,4.2-4.2,6.1c0.5-2.5,1.4-4.8,3.2-6.5C15.4,63.9,15.7,64.1,15.9,64.4z"/>
		<path class="st4" d="M13.9,62.7c0.1-1.9,1-3.2,3.1-4.1C16.3,60.5,15.1,61.7,13.9,62.7z"/>
		<path class="st5" d="M15.9,64.4c-0.4,0-0.8-0.1-1-0.5c0.9-1.2,1.4-2.8,3.4-3.2C17.7,62.2,16.3,63,15.9,64.4z"/>
		<path class="st6" d="M13.5,70.8c0.3-1.3,1-2.4,1.9-3.9c0.2,2-0.6,3.2-1.3,4.4C13.5,71.4,13.3,71.3,13.5,70.8z"/>
		<path class="st7" d="M13.5,70.8c0.2,0.2,0.3,0.3,0.5,0.5c-0.2,1.1-0.6,2-1.8,2.8C12.4,72.7,12.6,71.7,13.5,70.8z"/>
	</g>
	<polygon class="st8" points="147,16.9 147,99.7 138.1,99.7 34.4,28.6 34.4,48.8 34.4,71.2 34.4,99.7 25.5,99.7 25.5,64 25.5,39.1 
		25.5,16.9 34.4,16.9 34.4,16.9 138.1,88 138.1,16.9 	"/>
	<g>
		<path class="st9" d="M79.6,69.7c-1.7-0.1-2.3,1.3-3.2,2.3c-1.4,2.1-4.4,2.4-5.5,4.7c-2,2.4-4.2,4.6-7.1,6.1
			c-2.2,1.2-4.3,2.3-6.8,2.5c-0.5,0-0.9,0.2-1.4,0.3c-0.1,0-0.2,0.1-0.3,0.1c-0.1,0-0.3,0.1-0.5,0.1c-3.6,0.6-7.1-0.1-10.5-1.2
			c-4.2-1.1-6.2-5.1-9.7-7.1c0-1.7,0-3.5,0-5.3c0.1-0.1,0.2-0.1,0.3-0.1c0,0,0,0,0.1,0c0,0,0.1,0,0.2,0c0,0,0,0,0,0
			c0.1,0,0.2,0.1,0.3,0.1c0.1,0,0.1,0.1,0.2,0.1c0.1,0.1,0.2,0.2,0.3,0.3c0.8,0.8,2,1.2,2.6,2.2c0,0,0.1,0.1,0.1,0.1c0,0,0,0,0,0.1
			c0.2,0.7,0.7,1.3,1.3,1.2c2.2-0.2,4.4,0.8,6.5-0.3c2.2-1.1,4.1-2.4,6.1-4.1c3.1-2.8,5.1-6.3,7.7-9.4c1.7-2,4.2-3,6.3-4.6
			c1-0.8,2.4-0.4,3.1,0.5c1,1.4,2.6,1.8,4,2.2c3.6,1.1,6,3.2,7.5,6.5C81.9,69.4,81.6,69.8,79.6,69.7z"/>
		<path class="st0" d="M139.3,66.6c-1.8-1.4-3.3-3.2-5.2-4.4c-0.1,0-0.1,0-0.1,0c-0.1,0-0.1,0-0.2,0c-1.3,0.2-2.6,0.7-3.9,0.5h-0.2
			c0,0,0,0,0,0c-1.3,0.1-2.5,0.5-3.6,1.2c0,0,0,0,0,0c0,0,0,0,0,0c0,0,0,0,0,0c0,0,0,0,0,0.1c-0.1,0-0.2,0-0.3,0.1v0c0,0,0,0,0,0
			c-0.3,0.1-0.5,0.2-0.8,0.4c-0.2,0.1-0.4,0.2-0.6,0.4c0,0-0.1,0-0.1,0.1c-0.1,0-0.2,0.1-0.2,0.1c0,0,0,0,0,0c-1,0.6-1.9,1.3-2.8,2
			c0,0,0,0,0,0.1c0,0,0,0,0,0c-0.6,0.5-1.2,1-1.8,1.6c0.3-0.4,0.6-0.8,0.8-1.3c0,0,0-0.1,0-0.1c0,0,0,0,0,0c0,0,0,0,0,0
			c-0.1-0.3-0.3-0.5-0.6-0.5c-0.1,0-0.1,0-0.2,0.1c-0.1,0-0.2,0-0.3,0.1c0,0,0,0,0,0c-0.1,0-0.2,0.1-0.3,0.1c-0.6,0.3-1,0.7-1.4,1.1
			v0c-0.2,0.1-0.4,0.3-0.6,0.5c-0.1,0.1-0.2,0.2-0.2,0.2c0,0,0,0,0,0c0,0,0,0,0,0.1c0,0-0.1,0-0.1,0.1c-0.1,0-0.1,0.1-0.1,0.1
			c0-0.1,0-0.1,0.1-0.1c0,0,0,0,0.1,0c0,0,0,0,0,0c0,0,0.1,0,0.1-0.1c0,0,0,0,0,0c0,0,0,0,0,0c0.1,0,0.2-0.1,0.2-0.1
			c0.1-0.2,0.1-0.3,0.1-0.4c0-0.1,0-0.1,0-0.1v0c0,0,0,0,0,0v-0.1c-0.1-0.6-0.4-0.9-0.9-1c0,0,0,0,0,0c0,0,0,0,0,0
			c-0.1,0-0.1,0-0.2,0c0,0,0,0,0,0c-1.4,0.3-2.1,1.6-3.2,2.2c-0.1,0.1-0.1,0.1-0.2,0.2c0,0,0,0,0,0c-0.1,0.1-0.2,0.1-0.2,0.2
			c0,0,0,0,0,0h0c-0.3,0.2-0.5,0.4-0.8,0.6v0c0,0,0,0,0,0c0,0-0.1,0-0.1,0c0,0,0,0-0.1,0c-0.1,0.1-0.1,0.1-0.2,0.1c0,0,0,0,0,0
			c-0.1,0.1-0.2,0.1-0.2,0.2h-0.1c-0.5,0.3-1.1,0.4-1.7,0.6c-0.1,0-0.2,0-0.4,0.1c-0.2,0-0.4,0.1-0.6,0.3c0,0,0,0-0.1,0
			c0,0-0.1,0-0.1,0c0,0-0.1,0-0.1,0c0,0-0.1,0-0.1,0c-0.1,0-0.1,0-0.2,0.1c-0.2,0.1-0.3,0.2-0.4,0.3c0,0,0,0,0,0
			c-0.3,0.1-0.5,0.2-0.8,0.4c0,0,0,0-0.1,0c0,0,0,0,0,0c-0.7,0.7-1.5,0.6-2.4,0.6c0,0,0,0,0,0h-0.1c-0.1,0-0.2,0-0.4,0.1
			c0,0-0.1,0-0.1,0c0,0,0,0,0,0c0,0-0.1,0-0.1,0.1h-0.2c-0.9,0.4-2.1,0.7-1.5,2.2c0.3,0.8,0.4,1.1-0.3,1.7c-0.1,0.1-0.2,0.2-0.4,0.4
			h-0.2c0,0,0,0,0,0c0,0,0,0,0,0h-2.1c-0.4,0-0.7,0-1.1,0.1h-0.1c-0.4,0-0.9,0.1-1.3,0.3c-0.1,0.1-0.2,0.1-0.2,0.2
			c-0.1,0-0.1,0-0.2,0.1c0,0-0.1,0-0.1,0c0,0-0.1,0-0.1,0c-0.1,0-0.1,0.1-0.2,0.1c-0.1,0-0.3,0.1-0.4,0.1c-0.1,0-0.2,0-0.3,0
			c-0.7,0.9-0.3,1.3,0.2,1.6c0.1,0,0.1,0.1,0.2,0.1h0c0,0,0,0,0,0c0.1,0.1,0.2,0.1,0.3,0.2c0.4,0.2,0.7,0.5,1,0.8v0c0,0,0,0,0,0
			c0.1,0,0.1,0.1,0.2,0.2c0.1,0.1,0.1,0.1,0.3,0.2c1,0.5,2.2,0.4,3.3,0.6c0,0,0.1,0,0.1,0s-0.2,0.1-0.1,0.1c-0.2-0.1-0.3,0-0.5,0
			h-0.6c0,0,0,0,0,0c0,0,0,0,0,0c-0.4,0-0.7,0.1-1.1,0.1c-0.3,0-0.5-0.1-0.7-0.2c-0.5-0.2-1-0.3-1.5-0.4h-0.8c0,0-0.1,0-0.1,0h0
			c-0.6,0-1,0.1-1,1c0,0,0,0,0,0c0,0.1,0.1,0.2,0.2,0.2c0,0,0.1,0.1,0.1,0.1c0.2,0.1,0.5,0.1,0.7,0.1c1.3,0.8,2.7,1,4.1,1.2h4.2
			c1.5,0.5,2.9,0.9,4.5,0.3c0,0,0,0,0,0c1.3,0.1,2.4-0.3,3.5-0.8c1.2-0.5,2.4-1,3.7-0.8c0.6-0.7,1.5-1,2.2-1.4
			c2.5-1.4,5.2-2.4,6.8-5c0,0,0,0,0,0c0,0,0,0,0,0l0,0h0c0,0,0,0,0,0c0.1,0,0.1,0,0.2-0.1c0,0,0,0,0,0c0.8-0.3,1.3-0.8,1.6-1.6
			c0.1-0.2,0.2-0.5,0.3-0.7v0c0.1-0.2,0.1-0.5,0.2-0.7c0,0,0,0,0-0.1c0,0,0,0,0,0c0.3-0.9,0.6-1.8,0.9-2.7c0.6-1.8,1.7-3.3,3.6-3.7
			c0,0,0,0,0,0c0,0,0.1,0,0.2,0c0.1,0,0.2-0.1,0.4-0.1c0.9-0.7,1.7-0.9,2.9-0.5c1,0.3,2,0.7,3.1,0.5c0,0,0,0,0,0h0.1c0,0,0,0,0,0
			c1,0.3,1.9,0.6,2.9,1c0.1-0.2,0.1-0.4,0.2-0.5c0,0,0,0,0,0C140.2,67.4,139.8,67,139.3,66.6z M116.7,70.9L116.7,70.9
			C116.7,70.9,116.7,70.9,116.7,70.9c0.1-0.1,0.1-0.1,0.2-0.2c0,0,0,0,0,0c0.4-0.4,0.8-0.7,1.2-1c-0.4,0.4-0.8,0.7-1.1,1
			c0,0,0,0,0,0c0,0,0,0,0,0c0,0,0,0,0,0c-0.1,0.1-0.2,0.1-0.2,0.2c-1.4,1-2.7,2-4.1,2.9C114.1,72.9,115.4,71.9,116.7,70.9z"/>
		<path class="st10" d="M88.6,79.3c-2.4-2.3-5-4.5-7-7.1c-1.9-2.5-1.9-2.5-4.4-0.6c-0.2,0.2-0.6,0.3-0.9,0.5c0.2-2,1.4-2.9,3.3-2.6
			c1.4,0.2,1.8-0.2,1.1-1.4c-1.7-3.1-3.5-5.8-7.5-6.6c-1-0.2-3.5-0.1-3.9-2.4c-0.1-0.6-1.6-1.3-2.8-0.4c-1.7,1.3-3.7,2.4-5.2,4
			c-2,2.1-3.6,4.4-5.2,6.8c-0.6,0.9-1,1.8-2.2,2.1c-0.4,0.1-1,0.3-1,0.6c-1,3.6-4.7,3.5-7.1,5.3c-0.1,0-0.1,0.1-0.2,0.1
			c-2.4-0.7-5,0.6-7.3-0.9c-0.6-0.4-0.3-0.8-0.1-1.3c0.1-0.1,0.1-0.2,0.2-0.2c0.3-0.2,0.7-0.3,1.2-0.4c0,0,0,0,0.1,0
			c0.1,0,0.2,0,0.3,0c1.6,0,3.1-0.1,4.6-0.6c0.1,0,0.2-0.1,0.4-0.1c0,0,0.1,0,0.1,0c1.6-0.4,2.8-1.5,4.2-2.3c0,0,0,0,0,0
			c0.1-0.1,0.2-0.1,0.2-0.2c0.3-0.2,0.6-0.3,0.8-0.6c-0.2,0.2-0.5,0.4-0.8,0.6c-0.1,0-0.2,0.1-0.3,0.1c-0.1,0-0.2,0.1-0.3,0.1
			c-1,0-1.3-0.6-0.5-1.2c0.3-0.2,0.7-0.5,1-0.8c-1.6,1.2-3.2,2.6-5.2,3.4c-0.1,0.1-0.3,0.1-0.4,0.2c-0.1,0-0.2,0.1-0.3,0.1
			c-1.2,0.2-2.2,0.6-3.4,0.6c-0.1,0-0.2,0-0.3,0c0,0,0,0,0,0c-1.2-0.1-2.4-0.3-3-1.6c0,0,0,0,0,0c0,0,0,0,0,0c0.1-0.7,0.6-0.9,1.2-1
			c0.1,0,0.2,0,0.3-0.1c0,0,0,0,0.1,0c0.1,0,0.2,0,0.3,0h0.1c3.8,0.3,6.8-1.7,9.7-3.8c0.1-0.1,0.2-0.1,0.3-0.2c0,0,0,0,0.1,0
			c0.6-0.3,0.6-0.9,0.6-1.4c0-0.1,0-0.1,0-0.2c0-0.1,0-0.2,0-0.3c0.6-1.5,2.1-1.7,3.3-2.4c0.1-0.1,0.3-0.2,0.4-0.2
			c0.6-0.4,1.1-0.9,1.7-1.3c0.1-0.1,0.2-0.2,0.3-0.2c0,0,0.1-0.1,0.1-0.1c0.4-0.4,0.7-0.8,1.3-1h0c0,0,0,0,0.1,0c0,0,0.1,0,0.1-0.1
			c1.4-0.8,2.3-2.1,3.5-3.1c1.7-1.5,3.5-2.6,5.9-2.3c0.3,0,0.5,0.1,0.8,0.1c0.2,0,0.5,0.1,0.7,0.2c0,0,0,0,0,0
			c0.4,0.1,0.8,0.3,1.1,0.4c0.1,0,0.1,0.1,0.2,0.1c0,0,0.1,0,0.1,0.1c0,0,0.1,0.1,0.1,0.1c0.3,0.1,0.5,0.3,0.8,0.4
			c0.1,0,0.2,0.1,0.3,0.1c0,0,0.1,0,0.1,0c0.8,0.1,1.6,0.3,2.4,0.3h0.4c0.2,0,0.4,0,0.6,0.1l0.1,0.1c0.2,0.2,0.5,0.4,0.7,0.7
			c0.2,0.2,0.4,0.3,0.6,0.5c3.5,2.6,5.3,6.4,7.1,10.2c0,0,0,0.1,0.1,0.1c0,0,0,0.1,0,0.1c2,3.3,4.1,6.6,7.2,9.1c0,0,0,0,0,0v0.1
			C89.8,79.3,89.8,79.4,88.6,79.3z"/>
		<path class="st11" d="M103.4,58.1c-0.2,0.2-0.4,0.3-0.6,0.4c-0.1,0-0.2,0.1-0.3,0.1h-0.1c-0.3,0-0.7-0.1-0.9-0.3
			c0-0.1-0.1-0.1-0.1-0.2c0,0,0,0,0,0c-0.9-1.5-2.2-2.7-3.5-3.7c-2.5-2-4.6-4.2-5.6-7.2c-0.1-0.1-0.1-0.2-0.1-0.2
			c-0.1-0.1-0.1-0.1-0.1-0.1c-1.8-1.8-3.5-3.9-6-4.8c-1.1-0.4-2.2-1-1.8-2.5c0,0,0-0.1,0-0.1c0,0,0,0,0-0.1c0.4-0.3,0.9-0.3,1.3-0.2
			c0.5,0.2,1,0.5,1.5,0.7c0.3,0.2,0.7,0.3,1,0.5c2.3,1.2,4.4,2.7,5.7,5.2c0,0,0,0,0.1,0.1c0.1,0,0.1,0.1,0.2,0.2
			c0.5,0.5,0.7,1,1.1,1.6c2.4,2.1,4,4.7,6,7.1C101.9,55.5,102.6,56.8,103.4,58.1z"/>
		<path class="st12" d="M153.8,61.5c-0.1,0-0.1,0.1-0.1,0.1c0,0,0,0,0,0c-1.2,0.9-1.8-0.5-2.6-0.9c0,0,0,0,0,0
			c-0.1-0.1-0.1-0.1-0.1-0.2c0,0,0,0,0,0c-0.5-0.6-0.7-1.5-1.2-2.1c0,0,0,0,0,0c0,0,0,0-0.1-0.1c0,0,0,0,0,0c0,0-0.1-0.1-0.1-0.1
			c0,0,0,0,0,0c-0.6-0.6-1.3-0.5-2-0.7c-0.6-0.2-0.6-0.6-0.6,0.5c-0.1,1-0.5,1.1-1,0.9c0,0,0,0,0,0c-0.3-0.1-0.7-0.4-1-0.6
			c0,0,0,0,0,0c-0.1-0.2-0.3-0.3-0.4-0.5c0,0,0-0.1-0.1-0.1c-0.1-0.2-0.2-0.6-0.5-0.7c-0.1,0-0.3,0.1-0.4,0.1
			c-0.3,0.2-0.3,0.6-0.5,0.9c0,0.1-0.1,0.1-0.1,0.2c-0.1,0.1-0.1,0.2-0.2,0.2c-0.1,0.1-0.2,0.2-0.3,0.2c-2.4-0.3-2.7-2.5-3.6-4.1
			c-0.5-1,0.7-1.3,1.3-1.8c0,0,0.1,0,0.1-0.1c0,0,0,0,0,0c0,0,0,0,0,0c0,0,0,0,0,0c3-0.7,1.3,1.3,1.3,2.4c-0.2,0.2,0.4,0.1,0.1,0.1
			c-0.1,0-0.1-0.1,0.1-0.2c1-0.5,1.5-2,3-1.7c0,0,0,0,0,0c0,0,0,0,0.1,0c0,0,0,0,0,0c0,0,0,0,0,0.1c0.2,0.3,0.2,1,1.1,0.8
			c1.3-0.3,0.4-1.5,1.1-1.8c0,0,0,0,0,0l0.1-0.1c0.1-0.1,0.2-0.2,0.4-0.2c0,0,0.1-0.1,0.1-0.1c0,0,0,0,0,0c0.2-0.1,0.3-0.1,0.5-0.1
			h0.1c0,0,0.1,0,0.1,0c2.1,0.4,1.8,2.5,2.5,3.9v0c0,0.1,0.1,0.1,0.1,0.2c0,0,0,0.1,0,0.1c0.1,0.2,0.1,0.3,0.1,0.5
			c0,0.1,0.1,0.2,0.1,0.4c0,0.2,0.1,0.3,0.1,0.5c0.1,0.3,0.3,0.6,0.8,0.7c0.1,0.2,0.2,0.3,0.4,0.5C153,59.6,153.9,60.4,153.8,61.5z"
			/>
		<path class="st13" d="M147.2,73.5c-0.4-0.2-0.8-0.4-1.3-0.6c-0.1-1.3-1.1-1.9-2.2-2.3c-1.4-0.6-2.8-1-3.8-2.1
			c-0.1-0.3-0.2-0.5-0.4-0.7c-0.9-1.4-2.5-2.2-3.6-3.3c-0.6-0.6-1.3-1.2-1.9-1.8c-0.1-0.1-0.2-0.2-0.2-0.3v-0.1c0-0.1,0-0.2,0-0.2
			c0,0,0,0,0,0c0,0,0-0.1,0.1-0.1c0.2-0.3,0.5-0.4,0.8-0.6c0,0,0,0,0,0c0,0,0.1,0,0.1,0c0.3-0.1,0.6-0.1,0.9,0c0,0,0,0,0,0
			c0.1,0,0.1,0,0.2,0.1c0.1,0,0.2,0.1,0.4,0.2c0,0,0.1,0.1,0.1,0.1c0.3,0.3,0.5,0.6,0.7,0.9c0.1,0.1,0.1,0.1,0.2,0.2
			c0.3,0.4,0.7,0.7,1.1,1.1c0,0,0.1,0,0.1,0.1c0.5,0.4,0.8,1,1.4,1.2c0.1,0,0.2,0.1,0.3,0.1c0.1-0.1,0.1-0.2,0.1-0.4
			c0-0.1,0.1-0.3,0.1-0.4c0,0,0,0,0,0c0.1-0.9,0.6-1.4,1.6-1.3c0.8,0.1,0.9,0.7,1.1,1.3c0,0.1,0.1,0.2,0.1,0.3c0,0,0,0,0,0
			c0.1,0.3,0.3,0.6,0.4,0.9c0,0,0,0,0,0c0,0.1,0,0.2,0,0.3c-0.1,0.5-0.7,0.8-0.3,1.4c0,0,0,0,0.1,0.1c0.4,0.5,0.8,0.9,1.2,1.3
			c0.1,0.1,0.2,0.1,0.2,0.2c0.2,0.1,0.3,0.3,0.4,0.5c0.1,0.1,0.1,0.2,0.3,0.3c0.1,0.2,0.3,0.3,0.5,0.5c0,0.1,0.1,0.1,0.1,0.1
			c0,0.1,0.1,0.1,0.2,0.1c0.1,0.1,0.2,0.2,0.3,0.3c0.4,0.3,0.7,0.7,1,1.2c0,0,0,0.1,0,0.1c0,0,0,0.1,0,0.2
			C147.8,72.7,148.4,73.3,147.2,73.5z"/>
		<path class="st14" d="M148.5,51.7c-0.1,0.1-0.1,0.3-0.2,0.4h-0.5c-0.1-0.1-0.1-0.2-0.2-0.3c-1.4-2.4-3.9-3-6.2-3.9
			c-0.1-0.1-0.3-0.1-0.4-0.2c-0.1,0-0.1-0.1-0.2-0.1c-0.6-0.3-1.2-0.7-1.7-1.2c-0.1-0.1-0.1-0.1-0.2-0.2c-0.3-0.2-0.7-0.5-0.9-0.8
			c-0.5-0.5-1.4-0.9-0.9-1.8c0.4-0.7,1.3-0.3,1.8,0.1c0.9,0.8,1.2-0.1,1.7-0.6c0.2-0.1,0.3-0.2,0.6-0.1c0.1,0,0.3,0,0.4,0.1
			c0.1,0,0.2,0,0.2,0c1.6,0,2.1,1.7,3.3,2.3c0.4,0,0.8,0.1,1-0.4c2.2,0.5,1.6,2.4,1.9,3.9C148.9,49.9,149,50.8,148.5,51.7z"/>
		<path class="st15" d="M141,43.2c0,0.1,0,0.3,0,0.4c0,1.6-0.3,1.5-3.7,0.4c0.3,1.2,1.8,1.1,2.1,2.2c-0.1,0.1-0.2,0.2-0.3,0.3
			c-0.7,0.6-1.4,0.2-2-0.2c-0.1-0.1-0.2-0.2-0.3-0.2c-1.6-0.3-3.1-1-4.7-1.4c-0.2-0.1-0.4-0.1-0.6-0.1c0,0-0.1,0-0.2,0
			c-0.1,0-0.2-0.1-0.3-0.1c-0.5-0.1-0.9,0-1.4-0.1c0,0,0,0,0,0c0,0-0.1,0-0.1,0c-0.3-0.1-0.7-0.2-0.9-0.5c1.1-0.7,2.6-0.4,3.5-1.4
			c0.6,0,1.3,1,1.9-0.1c0,0,0,0,0,0c0.8-0.8,2-0.2,2.9-0.9C138.2,42.1,140.1,41.6,141,43.2z"/>
		<path class="st16" d="M90.1,39.4c-0.7,0.5-1.4,0.8-2,0.8c-0.8,0-1.6-0.3-2.4-0.8h-1.5c0,0-0.1,0-0.1,0c-1,0.1-1.9,0.4-2.9,0.5
			c-0.2,0-0.3,0-0.5,0c-0.1,0-0.3,0-0.4,0c-1-0.4-2.1-0.8-2.5-1.9c1-0.8,2.2-1.2,3.3-1.9c1.4-1,2.9,0.3,4.2,0.9
			c1.5,0.7,2.5,2.1,4.5,1.7C89.7,38.6,89.9,39.1,90.1,39.4z"/>
		<path class="st17" d="M110.3,60.2c-1.2-0.4-0.8-1.2-0.7-1.9c0-0.1,0-0.1,0-0.1c0,0,0,0,0,0c-0.9-1.5-1.9,0.1-2.8-0.1h0
			c-1.1,0-2.2,0-3.3,0.1c-0.4,0-0.7,0-1,0c0,0,0,0,0,0c0,0,0,0,0,0c0,0.2,0,0.3,0,0.4c0,0,0,0,0,0h0c0,0.1,0.1,0.2,0.2,0.2
			c-0.6,0-1.1-0.1-1.5,0.7h0v0c0,0.1,0,0.1,0,0.2c0,0.6,0.2,1.1,0.5,1.6v0c0.1,0.1,0.1,0.2,0.2,0.3h0c0,0,0,0,0,0
			c0.2,0.3,0.5,0.5,0.8,0.7c0.1,0,0.1,0,0.2,0.1h0.1c0.8-0.1,1.6-0.8,2.2-0.4c1.9,1.2,3.3,0,4.9-0.6c0,0,0,0,0,0c0,0,0,0,0.1-0.1
			c0,0,0,0,0.1,0c0,0,0,0,0,0c0,0,0,0,0,0c0,0,0,0,0,0C110.6,60.8,110.7,60.3,110.3,60.2z M103.5,58.7
			C103.5,58.6,103.5,58.6,103.5,58.7C103.5,58.6,103.5,58.6,103.5,58.7C103.5,58.6,103.5,58.6,103.5,58.7
			C103.5,58.7,103.5,58.7,103.5,58.7c0.1,0.1,0.2,0.3,0,0.3c-0.2,0-0.4-0.1-0.6-0.1C103.1,58.8,103.3,58.7,103.5,58.7
			C103.5,58.7,103.5,58.7,103.5,58.7z"/>
		<path class="st18" d="M165,77.8c0,1.5-0.5,3-0.5,4.5c-0.3,0.3-0.7,0.6-1,0.3c-2.5-2.1-5.6-2.8-8.5-4c-0.3-0.1-0.6-0.6-0.9-0.8
			c0.2-0.6,0.2-1.4,0.9-1.7c0,0,0.1-0.1,0.1-0.1c0,0,0,0,0.1,0c0.4,0,0.8,0.2,1.1,0.5c0.5,0.4,1,0.8,1.6,1c1.4,0.6,2.8,1.3,3.9,2.5
			c0.1-0.7-0.1-1.2,0-1.7c0.1-0.7-0.8-1.5,0-2c0.3-0.2,0.5-0.2,0.8-0.1c0.3,0.1,0.5,0.3,0.8,0.5c0.2,0.1,0.4,0.3,0.7,0.3
			c0.2,0.1,0.4,0.2,0.5,0.3C164.7,77.5,164.9,77.7,165,77.8z"/>
		<path class="st19" d="M70.8,76.8c-1.2,3.1-3.3,5.5-6.4,6.9c-2,1-4,2-6.3,2c-0.6,0-1.3,0.1-1.9,0.1c-0.1,0-0.3,0.1-0.4,0.1
			c-0.2,0.1-0.3,0-0.5-0.1c-0.1,0-0.1-0.1-0.2-0.1c4.6-0.9,8.5-3.1,12.2-5.7c0.7-0.5,1.5-1,1.7-2C69.2,77,69.9,76.8,70.8,76.8z"/>
		<path class="st20" d="M131.5,44.3C131.5,44.3,131.5,44.4,131.5,44.3c0,0.1-0.1,0.1-0.1,0.2c0,0-0.1,0-0.1,0.1
			c-0.4,0.2-0.8,0.3-1.2,0.4c-0.1,0-0.2,0-0.2,0c-0.1,0-0.1,0-0.2,0c-1.8,0.5-3.8,0.2-5.4,1.5c-0.1,0-0.2,0-0.3,0.1
			c-0.1,0-0.1,0-0.2,0c-0.1,0-0.2,0-0.2,0c-0.1,0-0.2,0-0.2,0c-0.3-0.1-0.6-0.1-0.8-0.1c-0.6,0-1.2,0-1.8,0.1
			c-0.3,0-0.5,0.1-0.8,0.2c0,0,0,0,0,0c-0.3,0-0.5,0-0.7,0.1c-0.6,0-1.1-0.1-1.5-0.6c0.1-0.6,0.4-1.2,1-1.5c0.8,0.4,1.6,0,2.6,0.2
			c-0.9-0.2-1.6,0-2.1-0.7c2.1-1.7,4.5-0.8,6.8-0.7c0.9,0,1.7,0.3,2.6,0.2c1,0,2,0,3,0C131.6,44,131.6,44.1,131.5,44.3z"/>
		<path class="st21" d="M164.5,77.3c-0.2,0-0.3,0-0.5,0c-0.6-0.3-1-0.7-1.5-1.2c-0.9-0.9-1.6-2-2.7-2.5c0,0,0,0,0,0
			c-0.1-0.1-0.1-0.1-0.2-0.2c-0.5-0.5-1-0.9-1.2-1.6c0-0.1-0.1-0.2-0.1-0.3c0,0,0-0.1,0-0.1c0.2-1.1-0.7-1.9-0.9-2.9
			c0-0.1,0-0.2,0-0.3c0,0,0,0,0,0c-0.4-1.4-0.4-1.4,0.8-1.3C160.8,70.1,163.1,73.5,164.5,77.3z"/>
		<path class="st22" d="M158.1,68c-0.2,0.3-0.5,0.5-0.7,0.6c-0.4,0.2-0.9,0.1-1.3-0.5c-0.6-1-1.7-1.7-2.3-2.7c0-0.1,0-0.2,0-0.3
			c0-0.1,0.1-0.1,0.1-0.2c0.1-0.3,0.4-0.6,0.4-0.9c0-0.1,0-0.2,0-0.2c0-0.5-0.3-0.9-0.5-1.3c0,0-0.1-0.1-0.1-0.1
			c-0.1-0.2-0.2-0.5-0.2-0.7c0,0,0,0,0,0c-0.4-1-1.2-1.8-0.9-3c2.4,2.4,4.7,4.9,5.4,8.4C156.5,67.3,158.4,67.6,158.1,68z"/>
		<path class="st23" d="M116.8,51.5c-0.1,0-0.2,0.1-0.2,0.1c-0.1,0-0.1,0-0.1,0.1c-2.5,1.4-4,4-6,6c-0.1,0.1-0.2,0.2-0.3,0.3
			c-0.1,0.1-0.1,0.1-0.2,0.2c-0.2,0-0.3,0-0.4,0c-0.1,0-0.2-0.1-0.2-0.1c-0.8-0.7-1.7,1.2-2.6-0.1c1.8-2.4,4.5-4,6.5-6.3
			c0.6-0.5,1.2-1,2-1c0.3,0,0.7,0,1,0.2c0.1,0.1,0.3,0.2,0.4,0.3C116.7,51.2,116.8,51.3,116.8,51.5z"/>
		<path class="st24" d="M95,80.3c-0.4,0-0.8,0-1,0c-0.4-0.1-0.8-0.5-0.9-1c-0.5-1.7-1.7-2.2-3.3-2c0,0,0,0,0,0c0,0,0,0,0,0
			c0,0-0.1,0-0.1,0.1c-0.4,0.6,0.3,1.8-1,1.9c0,0,0,0,0,0c0.2,0.1,0.4,0.3,0.5,0.5c0.7,0.7,1.3,1.5,2,2.2c0.5,0.5,1.1,1,1.9,1.3
			c0.5-0.8,1.3-0.5,2-0.5c0-0.2-0.1-0.4-0.1-0.5c-0.1-0.3-0.4-0.4-0.6-0.5c0.5,0.1,1,0.1,1.5,0c0,0,0.1,0,0.2,0c0,0,0,0,0,0
			c0,0,0,0,0,0C96,81.1,95.6,80.5,95,80.3z M92.4,81.1c0.4,0.3,0.9,0.5,1.4,0.6C93.2,81.6,92.5,81.7,92.4,81.1z"/>
		<path class="st20" d="M121.7,47.8c0.1,0.7-0.4,1.2-0.8,1.7c0,0,0,0-0.1,0.1c0,0,0,0,0,0.1c0,0,0,0,0,0c-0.1,0.1-0.1,0.1-0.2,0.2
			c-1,1.4-2.5,1.3-3.9,1.3c-0.5,0-1,0-1.4,0c-0.7,0.2-1.3,0.3-2,0.5c0.5-1.2,1-2.3,1.4-3.5c1.8,1.3,2.5-0.9,3.9-1.1c0,0,0.1,0,0.1,0
			c0.2,0.1,0.3,0.1,0.5,0.1c0.8,0.1,1.7,0.1,2.4,0.5c0,0,0,0,0,0C121.7,47.8,121.7,47.8,121.7,47.8z"/>
		<path class="st25" d="M152.2,53.7C152.1,53.7,152.1,53.7,152.2,53.7c-0.3,0-0.7-0.8-0.8,0c0,0,0,0,0,0.1c0,0,0,0,0,0.1
			c-0.6,0.5,0.7,1.7-0.2,2.1c-0.1,0-0.2,0.1-0.4,0.1c-1.2-1.1-0.1-3.6-2.5-4v-0.5c0-0.9,0-1.7-0.5-2.5c0.3-0.2,0.6-0.3,0.9-0.5
			c0.4,0.1,0.7,0.4,1.1,0.5C151,50.5,153.1,51.3,152.2,53.7z"/>
		<path class="st26" d="M93.9,45.7c-0.1,0-0.2,0.1-0.4,0.1c-1.1-0.7-1.8-2-2.5-2.9c-1.4-1.9-4-1.7-5.3-3.5c0.4,0.2,0.9,0.3,1.3,0.3
			c1,0,2.1-0.4,3.1-0.3c0.7,0.3,1.2,0.8,1.5,1.5c1,0.9,1.8,2,2.4,3.2C94.3,44.6,94.7,45.3,93.9,45.7z"/>
		<path class="st27" d="M155.2,76.1c0,0.1,0,0.2,0,0.3c-0.4,0.5-0.2,1.4-1.1,1.5c-0.7-0.1-1.4-0.5-1.9-1c0.5-0.6-0.2-0.6-0.4-0.9
			c0,0,0,0,0-0.1c-0.1-0.1-0.1-0.1-0.2-0.2c-0.2-0.2-0.3-0.4-0.4-0.7c-0.1-0.1-0.1-0.2-0.2-0.3c-0.1-0.2-0.2-0.4-0.3-0.6
			c0,0,0-0.1-0.1-0.1c0,0,0-0.1,0-0.1c-0.3-0.7-1.1-1.3-0.6-2.1c0.5-0.8,1.4-0.1,2.2-0.1c0,0,0,0,0,0c0,0,0.1,0,0.2,0.1
			c0.7,0.3,1.1,0.9,1.4,1.5c0.1,0.2,0.2,0.5,0.3,0.7c0,0,0,0.1,0,0.1C154.5,74.8,155.3,75.2,155.2,76.1z"/>
		<path class="st28" d="M81.4,41.3c0,0-0.1,0.1-0.1,0.1c0,0,0,0,0,0c0,0,0,0,0,0c-0.3,0.3-0.7,0.6-1.1,0.7c-0.1,0-0.3,0.1-0.4,0.1
			c-0.1,0-0.2,0-0.3,0c-1.5-0.3-2.8-1.1-4.1-1.9c0,0,0,0-0.1,0c0,0-0.1-0.1-0.1-0.1c-0.2-0.2-0.4-0.5-0.4-0.8c0.3-0.3,0.7-0.6,1-0.4
			c1.4,0.9,1.6-0.3,2-1.1c0.8,0.5,1.6,1,2.5,1.5c0.3,0.1,0.7,0.3,1,0.5C81.5,40.2,81.7,40.6,81.4,41.3z"/>
		<path class="st29" d="M106.9,85.2c-3.1,2.1-6.3,1.6-9.4,0c0.2-0.1,0.4-0.2,0.6-0.3h0c1.5-0.6,3.2-0.2,4.8-0.7
			C104,85.3,105.5,85,106.9,85.2z"/>
		<path class="st30" d="M166.9,81.6c-0.4,1.1-1.5,0.5-2.3,0.7c-1.3-1.6-0.5-3.1,0.5-4.5c0.3,0.3,0.7,0.7,1,1
			C166.9,79.6,167.3,80.5,166.9,81.6z"/>
		<path class="st31" d="M56.1,85.8c-0.1,0-0.3,0.1-0.4,0.1c-4,1.4-7.8,1-11.5-1.2c3.6,0.4,7.1,1.2,10.8,0.9c0.2,0,0.3,0,0.5,0
			C55.7,85.7,55.9,85.7,56.1,85.8z"/>
		<path class="st32" d="M120.6,46.6c0,0.1-0.1,0.2-0.2,0.3c-0.3,0.3-0.8,0.3-1.2,0.3c-0.2,0-0.4,0-0.6,0c-0.5,0.5-1,1-1.5,1.5
			c-1.1,1.1-1.9,0.9-2.4-0.6c0.7-1,1.5-1.9,2.9-2c0.8,0,1.7,0,2.5,0C120.6,46.2,120.7,46.4,120.6,46.6z"/>
		<path class="st25" d="M95,47.3c-0.7-0.3-1.2-0.8-1.5-1.5c0.1-0.1,0.2-0.2,0.2-0.3c0.6-0.8-0.4-1.3-0.6-2c-0.4-1-1.6-1.4-1.6-2.6
			C93.9,41.9,95.5,44.9,95,47.3z"/>
		<path class="st5" d="M75.3,39.9c0,0.2,0,0.3,0,0.4c-0.1,0.5-0.7,0.7-0.9,1.1c0,0,0,0,0,0c0,0.1,0,0.2,0,0.3
			c-1.3,0.6-2.6,1.6-4,0.2c0,0,0,0,0,0l-0.1-0.1c0.4-1.7,2.3-0.9,3.1-1.9c0.5-0.2,0.9-0.4,1.4-0.6C74.9,39.5,75.1,39.7,75.3,39.9z"
			/>
		<path class="st33" d="M151.4,75.6c0,0.1-0.1,0.1-0.1,0.2c0,0,0,0,0,0l-0.1,0.1c-1.8-0.1-2.8-1.5-4-2.4c0.7-0.5-0.1-1,0.1-1.5
			c0.1,0,0.2-0.1,0.3-0.1c0.1,0,0.3,0,0.4,0c0.6,0.2,0.9,0.6,1.4,1c0,0,0,0,0,0c0.1,0.1,0.2,0.1,0.4,0.2c0.3,0.2,0.5,0.5,0.7,0.7
			c0,0,0,0,0,0.1c0,0.1,0,0.1,0.1,0.2c0.1,0.2,0.2,0.4,0.3,0.6c0,0.1,0.1,0.2,0.2,0.3C151.2,75.1,151.3,75.4,151.4,75.6z"/>
		<path class="st31" d="M64.4,83.7c-1.7,1.9-3.9,2.5-6.3,2C60.3,85.4,62.1,83.8,64.4,83.7z"/>
		<path class="st24" d="M102.9,84.2c-0.9,0.4-1.9,0.6-2.9,0.7c-0.8,0.1-1.7,0.2-2.5,0.3c-1.3-0.1-2.4-0.7-3.5-1.5
			C96.9,84.9,100,84.2,102.9,84.2z"/>
		<path class="st34" d="M73.3,39.9c-0.6,1.3-2.3,0.8-3,1.9c0,0,0,0.1,0,0.1c0,0.8-0.6,0.8-1.1,0.8h-0.2c0,0,0,0,0,0
			c-0.1,0-0.2-0.1-0.3-0.1c-0.1-0.1-0.2-0.1-0.3-0.2c0.2-0.7,1.2-1,1-1.9C70.8,40.9,72,40,73.3,39.9z"/>
		<path class="st35" d="M122.1,44.9c-2.6,0.7-2.6,0.7-3.5-0.2c0.2-0.1,0.3-0.3,0.5-0.5C120.1,44.4,121.3,44.1,122.1,44.9z"/>
		<path class="st36" d="M152.2,57.1c-0.3,0.2-0.5,0.2-0.6,0.2c-0.3,0-0.6-0.4-0.8-0.7v-0.5c0.2-0.1,0.2-0.3,0.3-0.5v0
			c0.1-0.7-0.8-1.5,0.2-2c0.1,0,0.1,0,0.2,0.1c0.2,0.1,0.3,0.2,0.3,0.4C151.4,55.2,153.2,56,152.2,57.1z"/>
		<path class="st37" d="M134,43.3c-0.7,0.1-1.4-0.3-1.9-0.9c0.6,0,1.3-0.1,1.9-0.1c0,0,0,0,0,0C133.9,42.7,135.2,43.1,134,43.3z"/>
		<path class="st38" d="M152.4,58c-1.5,0.7-1.4-0.6-1.6-1.4c0.2,0.1,0.4,0.1,0.7,0.2s0.5,0.2,0.8,0.3
			C152.2,57.4,152.3,57.7,152.4,58z"/>
		<path class="st33" d="M152.8,76.5c0.1,0.4-0.4,0.3-0.6,0.4c-0.3-0.3-0.7-0.6-1-0.9l0.1-0.1c0.1-0.1,0.2-0.2,0.3-0.2
			c0.2,0,0.4,0,0.6,0.2C152.4,76.1,152.8,76.2,152.8,76.5z"/>
		<path class="st39" d="M152.2,53.7c-0.1,0.2-0.3,0.3-0.4,0.5c-0.1-0.1-0.2-0.2-0.4-0.3c-0.1-0.1-0.1-0.1-0.2-0.2
			c0.4-1.4,0.6,0,0.9,0.1C152.1,53.7,152.1,53.7,152.2,53.7C152.2,53.7,152.2,53.7,152.2,53.7z"/>
		<path class="st40" d="M149.8,49.2c-0.7,0.6-0.8-0.2-1.1-0.5C149.4,48.1,149.5,48.9,149.8,49.2z"/>
		<path class="st41" d="M34.5,38.6c4.2,0.9,7,3.9,10.2,6.4c3.2,2.5,5.8,5.2,7.2,9c0.3,1,1.1,0.4,1.6,0.1c0.5-0.2,0.7,0.1,0.7,0.5
			c-0.8,1.7-2.4,2.1-4,2.5c-1.5,0.1-2.5-0.8-3.7-1.5c-1.6-0.9-1.8-2.8-3.1-3.9c-2.2-1.8-4-4.2-6.3-5.9c-0.7-0.6-1.6-0.9-2.5-1.1
			C34.5,42.7,34.5,40.6,34.5,38.6z"/>
		<path class="st17" d="M63,47.3c0.5-1.1,1.6-1.7,2.4-2.5c0.9-0.3,1.8-0.8,2.8-0.2c0.3,0-0.1,0.7,0.4,0.4c2.1,0.6,0.1-0.9,0.5-1.1
			c0.1-0.2,0.3-0.3,0.5-0.4c0.7,0,1.3,0.2,2,0.4c0.2,0.1,0.3,0.3,0.5,0.5c0.3,0.6,0.1,1.2,0.3,1.8c0.4-0.8,1.1-0.9,1.8-0.9
			c1.6,0.4,2.8,1.2,3.1,2.9c0,0.2-0.1,0.5-0.3,0.6c-0.3,0.2-0.6,0.3-1,0.2c-1.2,0.2-0.8-1.3-1.6-1.5c0,0,0,0,0,0s0.2,0,0.2,0.1
			c0.5,1.2,0.3,2.3-0.4,3.4c-0.2,0.1-0.4,0.2-0.6,0.2c-0.7-0.1-1.3-0.5-1.8-1.1c-0.1-0.1-0.2-0.3-0.2-0.4c-0.4-0.7-0.7-1.9-1.6-1.4
			c-1.2,0.7,0.3,1.2,0.6,1.8c0.1,0.1,0.2,0.3,0.2,0.4c-0.1,0.8-0.7,0.9-1.2,0.8c-0.9-0.2-1.4,0.3-1.8,0.8c-1.4,0.4-2.4-0.5-3.5-1.2
			c-0.6-0.8-2.3-0.6-2.1-2.2c0.6-0.9,1.5-1.1,2.5-1c0.7,0.2,1.3,0.6,2.2,0.4c-0.9-0.5-1.7-0.9-2.7-0.7C63.8,47.7,63.3,47.7,63,47.3z
			"/>
		<path class="st5" d="M34.5,58.1c0-1.2,0-2.3,0-3.5c0.1-0.1,0.3-0.2,0.5-0.2c0.8-0.8,1.4-0.4,2.1,0.3c0.7,0.6,1.4,1.3,2.1,2.3
			c-0.2-1.2-0.6-2.3,0.3-2.9c0.9-0.5,1.5,0.4,2,0.9c0.4,0.4,0.9,0.3,1.4,0.5c0.8,0.6,0.5,1.1,0,1.7c-0.7,1.2,0,2,0.8,2.6
			c1.7,1.2,1.6,1.6-0.5,2.7c-0.2,0-0.5,0-0.7,0c-1.7-0.3-2.6-1.2-3-3.2c-0.1,1.5-0.9,1.5-1.8,1.1C36.8,60,36,59,35.1,58.3
			C34.9,58.3,34.7,58.2,34.5,58.1z"/>
		<path class="st42" d="M63,47.3c0.5,0,1,0,1.5,0c0.4,0.2,0.7,0.5,0.5,1c-0.9,0.2-1.8,0.3-2.5,1c-0.2,0.3-0.2,0.6-0.4,0.9
			c-0.9,1-1.9,1.9-2.8,2.9c-1.3,1.9-3.2,1.8-5.2,1.6c-0.2-0.2-0.4-0.4-0.6-0.5c2.7-1.9,6-3,7.6-6.2C61.8,47.8,62.5,47.8,63,47.3z"/>
		<path class="st3" d="M34.5,58.1c0.1,0,0.2,0,0.3,0c1.4,0.9,2.5,2.2,4,2.9c0.5,0.2,0.9,0.6,0.7,1.2c-0.3,0.7-0.9,0.5-1.5,0.3
			c-0.7-0.1-1.1-0.6-1.7-0.9c-0.6-0.3-0.7,0.2-0.7,0.6c0,0.5,0,0.9,0,1.4c0,0.3,0,0.5,0,0.8c0,1.3,0,2.6,0,4c0,0.3,0,0.6,0,0.8
			c-0.1,1.1,0.2,2.3-0.7,3.2l-0.2,0l-0.2,0C34.5,67.7,34.5,62.9,34.5,58.1z"/>
		<path class="st43" d="M68.4,45.3c-0.9-0.9-2-0.3-3-0.5c1-0.9,1.6-2.1,3-2.4c0.2,0,0.3,0,0.5,0c0.4,0.4,0.9,0.8,0.5,1.5
			c0,0.5,0.3,0.9,0.8,1.1c0.5,0.3,1.4,0.5,0.5,1.3c-1,0.8-0.9-0.2-1.1-0.7C69.4,45.3,68.8,45.4,68.4,45.3L68.4,45.3z"/>
		<path class="st44" d="M34.9,54.7c-0.1,0-0.2,0-0.3,0c0-3.1,0-6.2,0-9.4c0.6,0.1,0.7,0.5,0.9,0.9C35.5,49.1,36.2,51.9,34.9,54.7z"
			/>
		<path class="st45" d="M34.9,45.8c-0.1-0.2-0.2-0.3-0.4-0.5c0-0.2,0-0.4,0-0.6c1.2-1.2,1.9,0.2,2.8,0.6C36.6,46,36,47.1,34.9,45.8z
			"/>
		<path class="st46" d="M39.8,75.4c-0.5,0-1,0-1.5,0c-1-0.7-2.3-1.3-3-2.4c0.2-1.2,0.8-0.9,1.5-0.5c0.9,0.5,1.8,1.1,2.9,1
			C40.3,74.1,40.3,74.7,39.8,75.4z"/>
		<path class="st47" d="M36.9,72.4c-0.6,0-1.2-0.1-1.5,0.5c-0.2-0.2-0.3-0.3-0.5-0.5c0-1.2,0.1-2.3,0.1-3.5c0.3-0.4,0.7-0.4,1.2-0.3
			c0.2,0.1,0.4,0.2,0.5,0.4c0.2,0.3-0.5,1,0.4,1.1c0.5,0.3,1,0.6,1.6,0.9c0.2,0.2,0.5,0.4,0.3,0.8C38.2,72,37.4,71.7,36.9,72.4z"/>
		<path class="st13" d="M115.2,67.5c-1,0.8-2,1.6-3,2.4c-1.7-0.3-1.9-1.3-1.2-2.7c3.9-3.7,7.6-7.6,12.6-9.8c2-0.8,4.1-1.5,6.3-0.4
			c-0.1,0.6-0.3,1.2,0.6,0.5c1.1,0,1.8,0.8,2.6,1.3c0.4,0.4,0.8,0.8,1.2,1.2c0.2,0.4,0.5,0.8,0.1,1.3c-1.1,0.4-1.5-0.8-2.3-1.1
			c-0.2-0.2-0.5-0.4-0.7-0.5c0.2,0.2,0.5,0.3,0.7,0.5c0.4,0.5,1.4,0.6,0.8,1.6c-2.6-0.4-5.3-0.6-7.9,0.2c-1.4-0.1-2-0.5-0.6-1.6
			c0,0,0.1-0.2,0.1-0.2c0,0-0.1,0-0.2-0.1c-1.4,0.5-0.4,1.9-1.1,2.6c-1.2,0.1-2,1-2.8,1.7C118.7,65.6,116.7,66.1,115.2,67.5z"/>
		<path class="st48" d="M102.4,73.9c-0.8,0.1-1.2,0.7-1.6,1.4c0.8,0.1,1.5,0.1,2.2,0.2c-2.1-0.1-0.5,3.1-2.6,2.8
			c-0.7-0.8-1.2-1.5-2.5-0.7c-0.8,0.5-1.9,0-2.8,0c-0.9-0.4-1.3-1.3-1.7-2.1c0-0.2,0-0.5,0.1-0.7c1.5-1.4,3.5-0.3,5-1.2
			c-0.2-0.4-1-0.9-0.6-1.7c1.2-0.7,2.6-0.8,4-0.6c0.8,0.5,1.3,1.1,0.8,2.1C102.7,73.6,102.6,73.8,102.4,73.9z"/>
		<path class="st49" d="M93.5,75.4c0.9,0.4,1.1,1.3,1.5,2c0.2,0.1,0.2,0.3,0.1,0.5c-0.3,0.4-0.7,0.6-1.1,0.9c-0.8,1.3,0.6,1,1,1.5
			c-1.6,0.4-1.5,0.3-2.5-1.4c-0.6-1-1.9-1.1-3-1.6c-3.8-1.9-5.3-5.6-7.4-8.9c0.1-0.4,0.3-0.6,0.7-0.6c2.5,1.4,2.8,4.5,4.9,6.2
			c0.4,0.6,0.8,1.2,1.6,1.2c0.7,0.1,1.5,0.3,2.1,0.6c0.7,0.3,1.3,0.2,1.7-0.4C93.4,75.5,93.5,75.4,93.5,75.4z"/>
		<path class="st2" d="M102.4,73.9c0-0.2,0-0.3,0-0.5c1.3-0.5,0.4-2.1,1.5-2.7c2.4-1.1,4.7-2.3,7.1-3.4c0.1,0.1,0.2,0.1,0.3,0.2
			c-0.6,1.2,0.4,1.7,1,2.4c-0.3,0.6-0.9,0.7-1.5,1c-0.1-0.1-0.2-0.2-0.3-0.4c0.1,0.1,0.1,0.3,0.3,0.4c-0.6,0.8-1.5,1-2.5,1
			c-1.1-0.3-1.8,0.3-2.4,1C105.2,75.1,103.6,73.5,102.4,73.9z"/>
		<path class="st50" d="M115.2,67.5c1.2-2.7,4.8-2.6,6.2-5c0.1-0.2,1.1,0.1,1.6,0.1c0.2,0.2,0.2,0.4,0.2,0.6c-0.5,1-1.6,1.3-2.3,1.8
			c1.2-0.4,2.1-1.7,3.5-1.7c0.2,0,0.4,0.2,0.6,0.3c0.1,0.2,0,0.5-0.1,0.7c-2,0.8-3.1,3.1-5.5,3.3c-0.2-0.2-0.3-0.3-0.5-0.5
			c-1.2,0.1-1.6,1.7-3,1.5C116.2,67.8,115.9,67.5,115.2,67.5z"/>
		<path class="st51" d="M130.6,67c-1.3,3.3-3.3,6.1-6,8.4c0.7-1.9,1.3-3.8,2.1-5.6C127.4,68,128.5,66.8,130.6,67z"/>
		<path class="st50" d="M124.6,61.6c2.8-1,5.6-1.5,8.4,0c0.6-0.3,0.8,0.1,1,0.5c0,0.2,0,0.3,0,0.5c-1.3,0.2-2.5,1.5-3.9,0.5
			c-1-0.1-1.9-0.1-2.7,0.5c-0.7,0.4-1.4,0.7-2.2,0l0,0c0.5-2.4,2.8-1.2,3.8-2.1c-1.2,0.2-2.6,1-4.2,0.8c-0.1-0.1-0.2-0.3-0.2-0.4
			C124.5,61.7,124.6,61.6,124.6,61.6z"/>
		<path class="st52" d="M119.7,67.5c2-0.9,3.3-2.8,5.4-3.5c0.6-0.3,1-0.4,1,0.5c-3.3,1.6-6,4.1-8.9,6.4c-0.5,0.1-0.6,0-0.5-0.5
			C117.6,69.4,119,68.8,119.7,67.5z"/>
		<path class="st53" d="M95,82.8c-0.8-0.9-2.5-0.3-3.2-1.8c1.5,0.2,2.9,0.3,4.2,0.8c1.3,0,2.7,0.1,3.9,0.5c0.3,0.6-0.2,0.7-0.5,1
			c-0.2,0-0.3,0-0.5,0c-0.8-0.5-1.6-0.2-2.5,0C96,83.1,95.5,82.9,95,82.8z"/>
		<path class="st48" d="M116.7,70.4c0.2,0.2,0.3,0.3,0.5,0.5c-2.5,2.3-5.3,4.1-8.6,5.1C111.3,74.2,114.2,72.6,116.7,70.4z"/>
		<path class="st6" d="M95,77.8c0-0.2,0-0.3,0-0.5c1.9-0.5,3.7-1,5.6,0c0.9,0.5-0.3,0.6-0.2,1c-1.8,0.2-3.7-0.4-5.4,0.5
			C94.7,78.5,94.7,78.2,95,77.8z"/>
		<path class="st54" d="M105.9,73c-0.5-0.4-0.4-1.2-0.1-1.1c1.3,0.4,1.6-1.6,2.8-1c0.1,0-0.2,0.7-0.3,1.1
			C107.6,72.4,106.9,73.1,105.9,73z"/>
		<path class="st55" d="M126.1,64.5c-0.2-0.4-0.6-0.5-1-0.5c0-0.2,0-0.3,0-0.5c0.9,0,1.7-0.1,2.5-0.6c0.7-0.5,1.7-0.6,2.4,0.2
			C128.7,63.5,127.4,64,126.1,64.5z"/>
		<path class="st56" d="M110.9,73.1c0.5-1.5,1.6-1.9,2.9-2.1C112.9,71.8,112.6,73.3,110.9,73.1z"/>
		<path class="st57" d="M116.2,68.5c1.2-0.1,1.3-2.4,3-1.5c-0.6,1.2-2,1.7-3,2.5c-0.1-0.1-0.2-0.2-0.1-0.3c0-0.1,0.1-0.2,0.1-0.2
			C116.2,68.8,116.2,68.6,116.2,68.5z"/>
		<path class="st3" d="M108.1,74.4c-1.4,1.8-2.7,0.9-3.8,1.3C105.2,74.5,106.5,75,108.1,74.4z"/>
		<path class="st58" d="M117.1,75.8c-0.2,1-1.1,1.4-1.8,2.3C115.6,76.5,115.6,76.5,117.1,75.8z"/>
		<path class="st56" d="M116.2,69c0,0.2,0,0.3,0,0.5c-0.3,0.5-0.6,1.2-1.6,1.2C114.8,69.6,115.4,69.2,116.2,69z"/>
		<path class="st24" d="M99.5,83.3c0.2-0.3,0.3-0.7,0.5-1c0.5,0.1,1.2,0.1,1,0.7C100.8,83.6,100,83.2,99.5,83.3z"/>
		<path class="st24" d="M96.5,83.3c0.8-0.7,1.6-0.7,2.5,0C98.1,83.1,97.3,83.8,96.5,83.3z"/>
		<path class="st48" d="M95,77.8c0,0.3,0,0.6,0,1c-0.3,0-0.7,0.6-1,0C94.1,78.2,94.4,77.9,95,77.8z"/>
		<path class="st56" d="M110.1,73.3c-0.1,0.1-0.1,0.4-0.2,0.4c-0.1,0-0.3-0.1-0.4-0.2c0-0.1,0.1-0.3,0.2-0.4
			C109.8,73.2,110,73.2,110.1,73.3z"/>
		<path class="st17" d="M82.7,68c-0.2,0.2-0.4,0.3-0.5,0.5c-2-3.3-3.3-7.1-6.4-9.6c-0.3-0.3-0.6-0.5-1-0.7c-0.4-0.5-0.5-1.1-1-1.5
			c-0.2,0-0.3,0-0.5,0c-0.9-0.3-1.2-1.4-2.1-1.7c-0.5-0.9-2.3-0.7-2.1-2.2c0.6-1.1,1.8-1.3,2.8-1.7c0.6,0.1,1.2,0.1,1.9,0.2l0,0
			c1.1,0.2,1.4-0.5,1.4-1.4c0-0.7,0.4-0.8,0.9-0.7c0.5,0.5,0.9,0.6,1.1-0.3l0,0c2-0.6,2.4,1.1,3.2,2.2c0.1,0.3,0.2,0.7,0.3,1
			c0.1,0.5,0.3,1,0.6,1.5c0.1,0.2,0.2,0.4,0.3,0.6c0.2,0.5,0.1,1.2,0.6,1.6c1.9,1.3,2.2,3.2,2.4,5.2c0.4,0.8,1.1,1.5-0.1,2.3
			c-0.9,0.9,0.3,1.9-0.1,2.9C84.1,66.8,83.5,67.4,82.7,68z"/>
		<path class="st53" d="M65.9,55.2c-2.1-0.4-3.6,0.7-5,1.9c-1.2,1-2.3,2.1-3.3,3.3c-0.7,0.8-0.7-0.3-1-0.2c0-0.1-0.1-0.2-0.1-0.3
			c0-1,1.3-1.4,0.9-2.5c-0.1-0.2-0.1-0.4-0.1-0.6c0.2-1.2,1-1.9,2.1-2.3c0.2,0,0.4,0,0.6,0.1c0.4,0.3,0.3,0.6,0,0.9
			c0.2,0.1,0.2-0.2,0.3-0.2c0.6-0.9,2.2-1,1.8-2.6c1.8-1,3.6-0.6,5.4,0c0.7,0.2,1.6,0.5,1.4,1.4c-0.1,0.8-1,0.9-1.8,0.9
			C66.7,54.9,66.3,54.9,65.9,55.2z"/>
		<path class="st46" d="M38.8,71.9c-0.2-0.2-0.3-0.3-0.5-0.5c-0.3-0.5-1.2-0.7-1.3-1.4c-0.1-0.7-0.5-1.5,0-2.1
			c0.6-0.7,1.4-0.2,2,0.3c1.1,0.8,2.4,0.8,3.7,0.9c1.8,0.6,2.9-0.8,4.2-1.5c1.3-0.6,1.3-0.7,2.3-0.1C46.2,70,43.1,72.3,38.8,71.9z"
			/>
		<path class="st59" d="M60,54.7c-0.2,0-0.3,0-0.5,0c0.5-2.7,2.6-3.5,4.9-3.9c1.2,0.5,2.3,1,3.5,1.5c0.5,0,1,0.1,1.5,0.5
			c0.3,1,1.9,0.7,2,2c0.2,0.6-0.2,0.7-0.6,0.8c-0.2,0-0.4,0-0.6,0c-0.4,0-0.7,0-1.1,0.1c-0.1,0-0.2,0.1-0.3,0.1c-1-0.2-2-0.3-3-0.5
			c0.8-0.4,1.6-0.8,2.3-1.1c-1.4-1.6-3.5-1.8-6.3-0.8C61.7,54.1,61.2,54.8,60,54.7z"/>
		<path class="st60" d="M49.7,71.9c-1.3,0.9-2.3,2.1-4,2.4c-1-0.1-1.7-0.4-2-1.5c1.5-0.9,2.9-1.7,4.4-2.6c1.4-0.8,2.4-2.2,4.8-2.6
			c-1.6,1.2-2.8,2-4,2.8c-0.6,0.5-0.5,0.8,0.3,0.8C49.7,71.3,49.8,71.5,49.7,71.9z"/>
		<path class="st54" d="M53.6,63c-1.1,1.1-3,1.1-3.9,2.5c-1.4,1.5-2.7,3-5,3c-0.3-0.4-0.4-0.9-0.2-1.4c0.5-1,1.3-1.8,2.2-2.4
			c2.1-0.6,3.7-2.2,5.7-2.9C52.6,62.4,53.1,62.7,53.6,63z"/>
		<path class="st61" d="M43.7,72.9c1,0.1,1.1,1.3,2,1.5c-1.8,1.1-3.9,1.1-5.9,1c0-0.6,0-1.3,0-1.9C41.1,73.2,42.4,73.1,43.7,72.9z"
			/>
		<path class="st53" d="M56.6,60.1c-0.3,0.5-0.7,1-1,1.4c-1.1-0.6-2,0.8-3,0.3c-0.8-0.3-1.4,0.8-2.3,0.4c-0.2-0.2-0.3-0.3-0.3-0.6
			c0.2-0.8,0.5-1.5,1.1-2.1c2,0.5,3.5-0.2,4.7-1.7c0.4-0.5,0.9-1,1.7-0.6l0,0c0.6,0.7,0,1.1-0.4,1.6C56.9,59.2,56.2,59.4,56.6,60.1
			L56.6,60.1z"/>
		<path class="st59" d="M44.7,68.5c2.1-0.2,3.1-2.3,4.9-3c0.3,0.8,1.1,1.7-0.5,2c-1.8-0.3-2.7,1.3-4.1,1.9c-0.8,0.4-1.5,0.9-2.3,0.1
			c0.1-0.1,0.1-0.2,0.2-0.3C43.5,68.7,44,68.4,44.7,68.5z"/>
		<path class="st55" d="M70.4,55.2c0.4,0,0.8-0.1,1-0.5c1.6-0.3,1.5,1.2,2,2c-1,1.1-2-0.4-2.9,0C70,56.1,69.9,55.7,70.4,55.2z"/>
		<path class="st62" d="M52.7,61.6c1,0.6,1.9-2.1,2.9,0c-0.7,0.5-1.3,1-2,1.5c-0.7,0-1.5,0.2-1-1c-0.2-0.1-0.2-0.2-0.1-0.3
			C52.5,61.6,52.6,61.6,52.7,61.6z"/>
		<path class="st2" d="M58.1,63.5c-1,1.3-2,2.5-3.6,3.1c1.4-1,1.7-3.1,3.6-3.7c0.1,0.1,0.2,0.2,0.1,0.3
			C58.1,63.5,58.1,63.5,58.1,63.5z"/>
		<path class="st7" d="M49.7,71.9c-0.2-0.2-0.3-0.4-0.5-0.5c0.9-0.5,1.5-1.5,2.8-1.8C51.7,71.1,50.4,71.2,49.7,71.9z"/>
		<path class="st59" d="M60.1,60.6c0.2-1.2,0.7-1.7,1.6-1.8C61.9,59.9,61.2,60.2,60.1,60.6z"/>
		<path class="st63" d="M72.6,59.4c-0.9,0.4-1.4,0.2-1.9-0.4C71.4,58.3,71.9,58.9,72.6,59.4z"/>
		<path class="st59" d="M58.1,63.5c0-0.2,0-0.3,0-0.5c0-0.8,0.4-1.4,1.4-1.7C59.2,62.3,58.6,63,58.1,63.5z"/>
		<path class="st59" d="M70.4,55.2c0,0.5,0,1,0,1.5c-0.7,0-1.2-0.3-1.5-1l0,0C69.3,55.3,69.7,54.9,70.4,55.2L70.4,55.2z"/>
		<path class="st55" d="M73.8,56.7c1,0,1,0.7,1,1.5C74.2,57.9,73.8,57.4,73.8,56.7z"/>
		<path class="st64" d="M144.9,45.7c-1.7,0-2-2.1-3.6-2.3C143.2,43.2,144.2,44.3,144.9,45.7z"/>
		<path class="st65" d="M92.6,46.8c1.7,4.4,5.3,7,8.7,9.8c0.5,0.4,0.4,1,0.1,1.6c-0.8,0.8-1.7,0.6-2.7,0.6c-2-0.6-3-2.1-3.8-3.9
			c-0.4-0.9-1.1-1.3-1.9-1.8c-0.2-0.2-0.3-0.4-0.3-0.6c-0.3-1.3-1-2.3-2.2-3c-1-0.6-1.7-1.3-1.1-2.5C90.4,46.1,91.5,47,92.6,46.8z"
			/>
		<path class="st31" d="M92.6,46.8c-1,1.6-2-0.1-2.9,0c-2.3-0.1-3.4-2.1-5.1-3.2c-0.7-1.2-2.1-1.3-3.1-1.9c-0.1-0.1-0.1-0.2-0.2-0.3
			c0.2-0.9-0.5-1.4-1-2c1.3,0.5,2.6-1.2,3.9,0c0.3,1.2,1.2,2,2.3,2.3C89.4,42.4,90.9,44.7,92.6,46.8z"/>
		<path class="st66" d="M98.5,58.2c1,0,2,0,3-0.1c0.3,0,0.6,0,1,0c0.3,0.6,1,0.3,1.5,0.7c-0.8,0.6-1.9-0.1-2.5,0.7
			c-1.2,0.3-2.3,0.3-3.1-0.7C98.2,58.6,98.3,58.4,98.5,58.2z"/>
		<path class="st61" d="M142.9,65c-1.4,0.3,0.5-1.8-1.1-1.5c-0.9,0.2-0.8,0.8-0.9,1.5c-1.4-0.1-1.7-1.1-1.7-2.3
			c-0.1-0.4,1-0.1,0.5-0.7c-0.7-0.9-1.5-1.8-2.5-2.5c-0.7-1.8-3.1-2-3.6-4.1c-0.1-0.5-1.8-0.8-2.8-1.1c-0.5-0.2-0.8-0.4-1-0.9
			c-0.1-0.2-0.1-0.4-0.1-0.6c-0.4-0.8-1.2-1.1-2-1.3c-0.6-0.2-1.5-0.1-1.5-0.9c0-0.8,0.8-1.2,1.5-1.4c0.4-0.2,0.8-0.1,1.2,0.1
			c0.1,0,0.1-0.1-0.1-0.2c-0.8-0.5-2.4,0.1-2.2-1.3c0.3-1.5,1.5-2.4,3.2-2.4c0.4,3.4,3.7,3.1,5.6,4.5c0.1-1.1,0.1-2.5,1.9-2.3
			c0.9,0.3,1.2,1,1.5,1.9c0,0.2,0,0.5,0,0.7c-0.5,1.5,0.7,1.9,1.6,2.5c0.1,0.1,0.1,0.2,0.2,0.3c-1.4,1.8-0.6,4,2,5.4
			c1-0.1,0.9,0.7,1,1.3c0.1,0.7-0.1,1.4,0.3,2.1C143.9,62.8,144.4,64.1,142.9,65z"/>
		<path class="st67" d="M142.9,65c0.5-1.1,0.9-2.3,0-3.4c0-1.1,0.8-1,1.5-0.8c0.7,0.2,1.3,0.6,1,1.5c-0.1,0.3-0.5,0.3-0.5,0.6
			c0,0.1,0.4,0,0.7,0c0.7,0.2,1.1,0.6,1.5,1.2c0.1,0.4,0.1,0.8,0.1,1.3c0.9-0.3,1.2-1,1.5-1.8c0.3-1.1,1.3-1.8,1.9-2.7
			c0.2-0.2,0.5-0.5,0.8-0.3c1.2-0.6,1.2,1.7,2.5,1c0.2,0.2,0.3,0.3,0.5,0.5c-0.1,0.9,0.5,1.4,1,2c0,0.6-0.3,1-1,1
			c-0.2,0.1-0.4,0.2-0.7,0.3c-2.2,0.7-2.5,0.5-2-1.8c-0.4,0.5-0.6,1.1-0.9,1.6c-0.6,1.2,0.1,1.4,1,1.8c1.2,0.4,1.8,1.3,0.7,2.5
			c-0.5,0.3-1.1,0.5-1.5,1.1c0.8-0.1,1-1,1.8-1.1c0.9,1,0.5,1.8-0.4,2.5c-0.6,0-1.2,0.3-1.8-0.1c-0.4,1,1,1.2,0.8,2.1
			c-0.3,0.3-0.7,0.3-1,0c-0.2-0.2-0.3-0.3-0.5-0.5c-1.2-1-2.4-2-3.3-3.3c-0.8-1.7-2.1-3.1-3.1-4.6C143.2,65.4,143,65.2,142.9,65z"/>
		<path class="st12" d="M146.8,64c-0.8,0.1-1-0.7-1.5-1c-0.3-0.1-0.4-0.2-0.5-0.5c0.1-0.4,0.5-0.9-0.1-1.2c-0.7-0.4-1.3-0.4-1.9,0.2
			c-0.9-1.1,0.8-2.5-0.5-3.5c0.2-0.2,0.3-0.3,0.5-0.5c0.3-0.3,0.1-0.8,0.5-1c0.2,0,0.3,0,0.5,0c0.4,0.3,0.6,0.7,1,1l0,0
			c0.5,1.3,2.6,1.5,2.2,3.4C146.5,62,147.7,63.1,146.8,64z"/>
		<path class="st61" d="M144.8,53.2c-1.3,0.8-2.5,1.8-3.6,3.2c-0.3-1-0.3-1.9,0.2-2.8c0.6-1.2-0.6-0.7-1-0.9l0,0c-1-0.8-2.6-1.1-2-3
			l0,0c1.8,0.3,3.5,1.3,5.3,1.6c0.3,0.2,0.6,0.4,0.8,0.6c0.2,0.3,0.4,0.6,0.4,0.9C144.9,53,144.9,53.1,144.8,53.2z"/>
		<path class="st40" d="M144.3,52.2c-0.2-0.2-0.3-0.3-0.5-0.5c-0.8-1.6-2.8-2.4-2.9-4.4c1.9,1,4.4,0.9,6,2.8c0.6,0.7,1,1.3,0.9,2.2
			c-0.2,0-0.3,0-0.5,0c-0.8-0.1-1.6-1.4-2.4,0.1C144.7,52.4,144.5,52.4,144.3,52.2z"/>
		<path class="st61" d="M146.8,61.1c0.2-1.6-2.2-1.8-2-3.5c0.6,0.2,0.9,1,1.7,0.8c0.3-1.2-0.9-1.8-1.2-3.4c1.4,1.4,2.4,2.5,4,2.1
			c0,0,0.3,0.7,0.4,1c0,0.1-0.1,0.2-0.1,0.3c-1,0.8-1.5,1.9-2.2,2.8C147.2,61.3,147,61.2,146.8,61.1z"/>
		<path class="st61" d="M144.8,52.2c0-0.6-0.1-1.5,0.6-1.6c0.9-0.1,1.4,0.9,1.9,1.6c0.5,1-0.7,1.9,0,3c-0.5-1.2-2.7-0.1-2.5-2l0,0
			C145.5,52.9,145.4,52.5,144.8,52.2z"/>
		<path class="st61" d="M151.2,60.6c-0.2,0.2-0.3,0.3-0.5,0.5c-1.3-0.7-2-1.5-1-3l0,0C151.1,58.4,150.9,59.7,151.2,60.6z"/>
		<path class="st61" d="M144.8,57.6c-0.6,0-1-0.3-1-1c0.1-0.2,0.2-0.4,0.3-0.6C144.7,56.4,144.7,57,144.8,57.6z"/>
		<path class="st61" d="M143.3,56.6c0,0.4-0.1,0.8-0.5,1C142.9,57.2,141.9,56.3,143.3,56.6z"/>
		<path class="st5" d="M139.4,62.6c0.1,1.1,0.8,1.7,1.5,2.5c0,0.3,0,0.7,0,1c-1.5,0.1-1.7-1.7-3-2c-0.3-0.3-0.7-0.7-1-1
			c-0.1-0.7-0.4-1.2-1-1.5l0,0c-0.3-0.3-0.3-0.6-0.2-1C137.7,59.9,138.6,61.2,139.4,62.6z"/>
		<path class="st32" d="M143.3,65.5c1.8,0.9,2.7,2.7,3.4,4.4c-0.2,0.2-0.3,0.2-0.6,0.3c-0.6-0.1-0.9-0.5-1.4-0.8l0,0
			c-0.6-0.7-0.9-1.8-2-2C140.4,66.2,143.7,66.3,143.3,65.5z"/>
		<path class="st7" d="M135.9,60.6c0,0.3,0,0.7,0,1c-0.3,0-0.7,0-1,0c-0.2-0.1-0.4-0.2-0.5-0.5c-0.2-0.3-0.3-0.7-0.5-1
			c-0.1-0.2-0.1-0.3-0.1-0.5c0.3-0.9,0.2-2.2,1.5-2.1c1.3,0.1,0.5,1.5,0.9,2.2C136.3,60,136.2,60.3,135.9,60.6z"/>
		<path class="st68" d="M146.3,70c0.2,0,0.3,0,0.5,0c0.8,1.3,2.3,2,3,3.4c-1.1,0.1-1.6-1.1-2.5-1.5c-0.3-0.3-0.7-0.7-1-1
			C146,70.6,146,70.3,146.3,70z"/>
		<path class="st4" d="M137.9,64c1.7-0.4,1.7,1.8,3,2C139.1,66.6,138.8,64.9,137.9,64z"/>
		<path class="st53" d="M134.5,61.1c0.2,0.2,0.3,0.3,0.5,0.5c-0.2,0.4-0.6,0.5-1,0.5c-0.3-0.2-0.7-0.3-1-0.5c-0.3-0.5-0.7-1-1-1.5
			l0,0C132.8,60.4,133.7,60.8,134.5,61.1z"/>
		<path class="st65" d="M142.8,67.5c1.9-0.6,1.5,1.1,2,2C144,69,143.3,68.3,142.8,67.5z"/>
		<path class="st33" d="M146.3,70c0,0.3,0,0.7,0,1c-1,0-1.1-0.8-1.5-1.5C145.3,69.6,145.8,69.8,146.3,70z"/>
		<path class="st23" d="M135.9,61.6c0.8,0.2,1.5,0.4,1,1.5C136.6,62.6,136.3,62.1,135.9,61.6z"/>
		<path class="st12" d="M140.9,47.3c0.6,0.7,0.9,1.6,2,1.8c1.4,0.3-0.3,2.1,1,2.6c-1.9-0.3-3.9-0.4-5.4-2c-0.3-0.7-0.7-1.3-1-2
			c-0.5-0.6-1.1-1.1-0.5-2c0.8,0.1,1.5,1,2.5,0.5C139.9,46.6,140.4,46.9,140.9,47.3z"/>
		<path class="st69" d="M136.9,45.8c0.2,0.7,0.3,1.3,0.5,2c-2.4,0-1.4,1.8-1.6,3c-1.3-0.4-2.1-1.6-3.7-1.6c-1.5-0.1-3.2-1.5-2.5-3.8
			c0.2-0.2,0.4-0.3,0.6-0.3c0.5-0.1,1.5,0.6,1.4-0.7c0-0.2,0-0.3,0-0.5C133.2,44.7,135.3,44.7,136.9,45.8z"/>
		<path class="st70" d="M109.3,58.1c0.2,0,0.3,0,0.5,0c1.3-1,3.1-0.5,4.3-1.7c0.2-0.1,0.4-0.2,0.6-0.2c1-0.3,1.9-0.2,2.2,1
			c-0.1,1.1-0.8,1.9-1.5,2.6c-0.8,0.5-1.7,0.9-2.4,1.6c-0.5,0.4-1,0.9-1.7,1c-0.5,0-0.9-0.2-1.2-0.7c-0.1-0.2-0.1-0.4,0.1-0.6
			c0-0.2,0-0.4-0.1-0.4C108,60.5,108.6,59.3,109.3,58.1z"/>
		<path class="st54" d="M98.5,58.6c0.8,0.9,2.1,0.2,3,1c0.5,0.8,1,1.6,1.5,2.5c0.3,0.3,0.2,0.7,0,1c-1,0.5-1.3-0.2-1.6-0.9
			c-2-1.7-2.2-1.6-3.5,1.2c-0.5,1.3-1.2,0.6-1.9,0.2c-0.8-0.5-1-1.4-1.2-2.3c-0.1-0.7,0-1.4-0.1-2c0-0.7,0.2-1.4,0.9-1.8
			C96.7,57.3,97.5,58.2,98.5,58.6z"/>
		<path class="st13" d="M102.9,63.1c0-0.3,0-0.7,0-1c1.3-0.2,2.5-2.2,3.9,0c0.1,0.2,2.1-1.1,3.5-1c0,0.2,0,0.3,0,0.5
			c0.1,0.9-0.8,0.8-1.1,1.3c-0.4,0.4-0.8,0.7-1.3,0.9c-0.8,0.2-0.6,1.3-1.4,1.5c-0.2,0-0.4,0-0.6,0c-0.7-0.3-0.5-1.3-1.1-1.6
			c-0.4-0.8-1.1-0.1-1.6-0.3C103.1,63.2,103,63.1,102.9,63.1z"/>
		<path class="st71" d="M155.2,76.4c-0.5-0.7-1-1.3-1.5-2c0.5-0.7,0.1-1.3-0.2-1.8c-1-1.8-0.8-2.4,1.3-1.9c0,0,0-0.4,0-0.7
			c0.1-0.4,0.3-0.6,0.7-0.7c0.5,0.1,0.8,0.4,1.2,0.8c0.1,0.2,0.2,0.4,0.3,0.6c0.4,1.6,0.8,3.1,3,2.7c2.4,0.3,2.5,2.8,3.9,3.9
			c-1,0.6-1.1-1-2.2-0.8c1,1.4,0.1,3.1,0.7,4.6c-1.6-1.3-3.2-2.4-5-3.3c-0.5-0.4-1-0.6-1.5-1C155.8,76.7,155.5,76.5,155.2,76.4z"/>
		<path class="st27" d="M156.2,76.9c0.7,0,1.2,0.3,1.5,1C156.9,77.8,156.4,77.5,156.2,76.9z"/>
		<path class="st52" d="M115.2,59.6c0.5-0.8,1-1.6,1.5-2.4c0.3-0.5,0.9-0.7,1.3-1.1c0.4-0.4,1.3-0.6,0.9-1.2
			c-0.6-0.9-0.9,0.2-1.3,0.4c-0.9,0.4-1.2-0.2-1.3-0.9c-0.2-0.9,0.3-1.8,0.4-2.6c-0.3-0.6-0.9-0.4-1.5-0.5c1.8-0.8,4-0.2,5.4-2
			c0.1,0.1,0.1,0.2,0.2,0.3c0.2,1-0.1,2.1,1.1,2.7c0.3,0.1,0.2-0.3,0.4-0.3c1.6-0.8,1.8,0.8,2.5,1.5c0.6,0,1.1,0,1.7,0.2
			c-0.6-0.4-1.3-0.1-1.9-0.4c-0.7-2,1.1-4.5-1-6.3c-0.2-0.1,0.3-0.5,0.5-0.7c0.2-1.2,1.2-1.4,2.1-1.4c1.1,0,2.2-0.3,3.3-0.5
			c0.3,0.3,0.8,0.4,0.5,1c-0.2,0-0.3,0-0.5,0c-0.3,0.2-0.7,0.5-1,0.7c-1.1,0.9-3.5,2,0.3,2.4c0.7,0.1,1.5,0.6,1,1.5
			c-0.6,1-0.8-0.2-1.2-0.4c-1.3-0.7-1.5,0.6-2.2,1c1.7-0.2,3.6,0.9,3.6,2.1c-0.1,0-0.1-0.1-0.2-0.1c0.3,0.1-0.1,0,0.2,0.1
			c0.1,0.5,0,1.3,0.8,1c0.3-0.2,0.5-1.1,0.8-0.1c0.2,0.8,0.4,1,1.2,0.8c1.2-0.3,2.1,0,1.7,1.6c-0.1,0.3,0.2,0.8,0.3,0.8
			c1.7-0.2,2.1,1.1,2.6,2.2c-0.3,0.8-0.9,0.6-1.5,0.5c-0.1-0.2-0.3-0.4-0.3-0.6c-0.1-0.4,0.6-1-0.2-1.2c-0.7-0.1-1,0.5-0.7,1.2
			c0.6,1-0.6,0.6-0.7,1.1c-0.3-0.3-0.7-0.7-1-1c-1.7-2.4-4.4-2.4-6.9-2.7c-2.1-1.2-4-1-5.6,0.1c1.3-1.2,1.8,0,2.3,1.3
			c-1.6,1.5-3.6,2.3-5.4,3.4C116.3,61.1,115.7,60.5,115.2,59.6z"/>
		<path class="st54" d="M124.6,53.7c-0.9-0.4-1-2.1-2.5-1.5c-0.6-0.9-1.2-1.9-1.5-2.9l0,0c0.3-0.5,0.7-1,1-1.4c0.3-1,0.8-1.7,2-1.5
			c0.2,0,0.3,0,0.5,0c-1,1.4,2.1,1.4,1,2.8c1.3,0.3,0.1,1,0.1,1.4c0,0.6-1.1,1.2,0.3,1.8c0.5,0.2-0.9,0.3-0.9,0.9
			c0.2,0.1,0.2,0.2,0.2,0.3C124.7,53.6,124.7,53.7,124.6,53.7z"/>
		<path class="st72" d="M123.6,46.3c-0.7,0.5-1.3,1-2,1.5c-1.1,0.2-2.2,0.7-3-0.5c0.2-0.9,1.5,0.1,1.5-1
			C121.3,45.5,122.5,45.5,123.6,46.3z"/>
		<path class="st61" d="M130,45.3c-0.2-0.3-0.3-0.7-0.5-1c0.7,0,1.3,0,2,0c0.6,0.3,1.3,0.9,0.8,1.5C131.5,46.7,130.8,45.4,130,45.3z
			"/>
		<path class="st71" d="M155.7,69.5c-0.2,0.2-0.3,0.3-0.5,0.5c-0.3,0.2-0.7,0.2-0.9,0c-1.2-1.7-2.9-3.1-4-4.9c0.1-1,0.6-1.8,1.2-2.7
			c1.1,0.9,1.1,1.8,0.1,2.7c0.9,0.8,1.7-1.1,2.6,0c0.9,0.9,1.9,1.7,2.5,2.9c0.4,0.7,1,0.2,1.4,0c0,0.8-0.1,1.6,0.8,2.1
			c1,0.6-0.2,0.9-0.3,1.3c-0.3,0.3-0.1,1-0.8,1c-0.5,0-0.8-0.4-0.8-1c0-0.4-0.1-0.8-0.4-1l0,0C156.4,70.1,156.2,69.6,155.7,69.5z"/>
		<path class="st61" d="M156.7,70.4c0.4,0,0.9,0.1,0.8,0.6c-0.3,2.2,0.7,0.6,1.1,0.4c0.5,0.7,1,1.3,1.5,2c-1.2,1.6-2.1,0.8-2.9-0.4
			C156.7,72.3,156.6,71.4,156.7,70.4z"/>
		<path class="st12" d="M155.2,64c-0.5-0.6-2.9-0.2-1-2C154.8,62.6,155.1,63.3,155.2,64z"/>
		<path class="st17" d="M116.7,51.7c0.4,0.1,0.9,0.1,0.5,0.7c-0.5,0.8-0.7,1.6-0.2,2.4c1.1,0.3,0.3-1.9,1.6-1.1
			c0.5,0.3,1.1,0.7,1.2,1.2c0.2,0.8-0.8,1.1-1.2,1.7c-0.5,0.6-1.1,0.6-1.8,0.6c-0.5-0.7-1.2-0.7-2-0.5c-0.2-0.9,0-1.7,1-2.3
			c-2.3,0-0.6,1.8-1.5,2.3c-1.1,1.8-2.9,1.1-4.5,1.5c1.5-1.4,2-3.5,3.7-4.9C114.4,52.4,115.4,51.7,116.7,51.7z"/>
		<path class="st61" d="M150.2,65c2.1,1.2,3,3.6,4.9,4.9c0.2,0.6,1.3,1.2,0.4,1.9c-0.9,0.7-0.8-0.5-1.2-0.9c-0.3-0.2-0.6-0.3-0.8,0
			c-0.4,0.4,0,0.7,0.1,1c0.3,0.8,1.7,1.6,0,2.4c-0.4-0.9-0.6-1.9-1.5-2.5c-0.1-0.8,1.1-1.6,0-2.5l0,0c0.2-1.1,0.6-2.5-1.5-2.1
			c-0.8,0.2-0.9-0.4-1.1-1C149.4,65.7,149.2,65.1,150.2,65z"/>
		<path class="st68" d="M150.2,73.9c0.3,0,0.7,0,1,0c0.3,0.7,0.7,1.3,1,2c-0.3,0-0.6,0-1,0C150.9,75.2,150.2,74.8,150.2,73.9z"/>
		<path class="st73" d="M74.3,41.4c-0.5-1.1,0.9-0.8,1-1.5c1.3,0.7,2.6,1.3,4,2c2,0.5,3.7,1.6,5.1,3.1c0.4,0.5,0.7,1.1,1.2,1.5
			c0.7,0.6,1.1,1.3,1.4,2.1c0.2,0.4,0.4,0.8,0.6,1.1c0.6,1-1.2,1.8-0.3,2.9c0.2,0.6,0.3,1.1-0.1,1.7c-2-0.2-2.7-1.9-3.7-3.2
			c-0.6-0.7-1.2-1.6-1.6-2.4c-0.5-1-1.7-1.5-1.7-2.8c0.5-0.5,0-0.7-0.3-0.7C77.2,44.9,75.8,43.1,74.3,41.4z"/>
		<path class="st74" d="M84.2,45.3c-1.6-1.2-3.3-2.3-4.9-3.5c0.7-0.2,1.3-0.3,2-0.5l0,0c1,0.6,2.4,0.6,3.2,1.7
			C85.2,43.9,85.8,44.7,84.2,45.3z"/>
		<path class="st75" d="M74.3,41.4c2.5,1.2,4.3,3.7,7.6,3.8c-0.7,1.1-1.2,0.5-1.6,0.6c-0.6,0-1-0.6-1.6-0.4c1.5,0.8,2.6,2.1,3.5,3.6
			c0.8,1.5,1.7,2.9,2.9,4.1c0.8,0.8,1.7,1.6,1.2,2.9c-1.2,0.6-1.3-0.6-1.8-1.1c0.4,0.5,0.5,1.6,1.7,1.1c0.8,0,1.2,0.4,1.5,1.2
			c-0.7,1.7-1.7,3.2-3.6,3.8c0.5-3-3.1-4.5-3-7.4c0.5-0.2,0.7,0,1,0.4c-0.7-0.9-1.5-1.8-2-2.8c-0.9-0.9-1.4-2.4-2.9-2.5
			c-0.5-1.4-1.5-2.4-2.9-3c-0.8-0.6-2-0.4-2.5-1.5l0,0c-0.6-0.4-1.3-0.4-2-0.5c-0.2,0-0.3,0-0.5,0c-0.2-0.5-0.3-1-0.5-1.5
			c0.5,0,1.1,0,1.5-0.5C71.8,42.6,73.1,42,74.3,41.4z"/>
		<path class="st76" d="M50.2,61.6c0,0.2,0,0.3,0,0.5c-0.7,1.5-2.4,1.8-3.5,3c-0.5,0.8-1.1,1.5-2,2c-0.1,0-0.2,0-0.3,0
			c-0.5,0-0.9-0.1-1.2-0.4c-0.1-0.2-0.2-0.4-0.1-0.6c0.1-0.3,0.3-0.6,0.7-0.4c0.1,0,0.1,0.1,0.2,0.1c0.4,0.2,0.7,0.1,1-0.3
			c-0.3,0-0.4,0.5-0.9,0.3c-0.2-0.1-0.4-0.3-0.5-0.4c-0.5-1-0.6-2.1-0.2-3.2c0.7-0.1,1.4-0.3,1.4-1.1c0-1.4-0.9-0.1-1.3-0.4
			c-1.1-0.8-0.9-2.3-1.7-3.2c0.4-0.1,0.8-0.2,1.1-0.3c0.2-0.2,0.4-0.2,0.6-0.1c1,1,2.2,1,3.4,0.6c1-0.7,2.3-0.7,3.4-1
			c1.5-0.3,2.7-1.2,3.9-2c1.5-1,3.7-0.1,4.9-2c1.1-0.8,2.4-1.5,3-3c0.2-0.2,0.3-0.3,0.5-0.5c0.2,1.1,1.8,0.3,2,1.5
			c-1.7,1.2-3.9,1.9-4.9,3.9c-0.9,0.6-1.9,1.2-2,2.5c-0.7,0.6-1.4,1.1-2,1.8c-1.3,1.7-2.7,2.1-4.4,0.7c-0.1-0.1-0.1-0.1-0.2-0.2
			c-1.7,0.7-1.9,1.1-1,1.9C50,61.4,50.1,61.5,50.2,61.6z"/>
		<path class="st77" d="M34.9,45.8c1,0.7,1.5-0.7,2.4-0.5c2.4,1.6,4.1,4.1,6.4,5.9c0.3,1.7-0.7,1.4-1.6,0.9c-0.6-0.3-0.9-1-1.5-1.2
			c-0.4-0.1-0.8,0-1.1,0.3c-0.3,0.5,0.2,0.7,0.5,0.9c1.4,0.8,2.4,1.8,2.8,3.4c-1.8,1.4-1.6-1.5-2.9-1.2c-1,1.3,0.1,2.2,1.1,3.5
			c-1.9-0.2-2.6-1.4-3.6-2.2c-0.5-0.4-1-1.8-2-0.5c-0.1-0.2-0.3-0.4-0.4-0.6C34.9,51.7,34.9,48.8,34.9,45.8z"/>
		<path class="st78" d="M39.8,52.7c-0.7-0.1-1.7-0.2-1.7-1c0-0.8,1.1-0.8,1.6-1.3c0.8-0.8,1.2,0.1,1.9,0.3c0.7,0.2,0.9,2.9,2.2,0.5
			c1.6,0.9,1.4,3.1,3,3.9c0.6,1.4-0.3,1.2-1,1c-1.5-0.4-2.8-1.3-3.9-2.3C41.2,53.4,40.8,52.5,39.8,52.7z"/>
		<path class="st50" d="M39.8,52.7c0.6-0.7,1-0.2,1.4,0.2c1.3,1.1,2.8,2,4.3,2.7c0.5,0.2,1.1,0.7,1.2-0.4c1.2,0.3,2,1.7,3.5,1.5
			c-1.2,0.4-2.1,1.5-3.5,1.5c-1.3,0.1-2.3-0.6-3.5-1c-0.2,0-0.3,0-0.5,0c0.1-0.5,0.8-1,0-1.5C41.6,54.9,41.2,53.3,39.8,52.7z"/>
		<path class="st52" d="M70.9,50.7c-0.1-0.1-0.3-0.1-0.4-0.2c-0.7-0.4-1.8-0.7-1.4-1.9c0.1-0.5,0.4-0.8,1.2-0.9
			c1.7-0.3,1.5,0.8,1.9,1.6c0.1,0.3,0.2,0.6,0.2,0.9c-0.1,0.2-0.2,0.3-0.4,0.4C71.6,50.7,71.2,50.8,70.9,50.7z"/>
		<path class="st79" d="M70.9,50.7c0.2-0.4,0.6-0.5,1-0.5c0.3,0.3,0.8,0.4,0.5,1c-1,0.5-2,1-3,1.5c-0.7,0.4-1.2,0.3-1.5-0.5
			c0.1-1.1,0-2.4,1.7-1.2C70.1,51.4,70.5,51.2,70.9,50.7z"/>
		<path class="st80" d="M64.9,48.3c-0.2-0.3-0.3-0.7-0.5-1c1.5-0.9,2.4,0.6,3.7,0.8c0.3,0,0,0.9-0.4,0.9
			C66.8,48.8,65.6,49.6,64.9,48.3z"/>
		<path class="st79" d="M76.3,49.3c-0.7,0.7-0.1,2-1.4,2.4c-0.7,0.2-0.8-0.1-1-0.5c0.5-1.1,1.3-2.2,0.5-3.5l0,0
			c0.1-0.6,0.3-1,0.8-0.3c0.3,0.5,0.3,1.3,1.2,1.3c0.1,0.1,0.2,0.2,0.1,0.3C76.4,49.2,76.3,49.3,76.3,49.3z"/>
		<path class="st43" d="M71.9,44.3c0.8,0.5,2,0.4,2.5,1.5c-0.7,0.2-1.5,0.4-2.5,0.7C71.9,45.7,71.9,45,71.9,44.3z"/>
		<path class="st58" d="M74.3,47.8c-0.1,0.5-0.2,1-0.9,0.7c-0.2-0.1-0.5-0.6-0.4-0.8C73.5,47.1,73.9,47.7,74.3,47.8L74.3,47.8z"/>
		<path class="st81" d="M72.3,51.2c-0.2-0.3-0.3-0.7-0.5-1c0.2,0,0.3,0,0.5,0c0.5,0.3,1,0.7,1.5,1C73.3,51.3,72.8,52,72.3,51.2z"/>
		<path class="st43" d="M69.9,43.8c0.9-0.8,1.4,0,2,0.5C71.2,44.3,70.4,44.5,69.9,43.8z"/>
		<path class="st49" d="M76.3,49.3c0-0.2,0-0.3,0-0.5c0.3,0,0.7,0,1,0c-0.1,0.4,0,0.9-0.2,1.1C76.7,50.1,76.5,49.6,76.3,49.3z"/>
		<path class="st43" d="M68.4,45.3c-0.1,0.4,0.4,0.9,0,1.3c-0.1,0.1-0.5-0.1-0.6-0.3C67.5,45.7,68,45.5,68.4,45.3L68.4,45.3z"/>
		<path class="st68" d="M34.9,62.1c0.1-0.6-0.4-1.4,0.4-1.7c0.6-0.3,1,0.5,1.4,0.8c0.7,0.7,1.4,1.1,2.6,1c-1.6-1.4-3.6-2.2-4.5-4
			c0.1-0.4,0.1-0.9,0.7-0.3c1,1,1.9,2,3.4,2.5c0.5-0.7-1.3-1.5-0.2-1.9c1-0.4,1.8,0.7,1.9,1.5c0.2,1.4,1.2,1.7,2.2,2.2
			c0.9,1.2-0.1,2.4,0.1,3.5c-0.3,0.4-2,0.1-0.7,1.4c0,1.4-1,1.6-1.8,1c-1.7-1.4-4.3-1.7-5.4-3.9c0-0.2,0-0.3,0-0.5
			C35.3,63.1,35.3,62.6,34.9,62.1z"/>
		<path class="st62" d="M42.8,65.5c-1.3-1.2,0.6-2.3,0-3.4c0.2,0,0.3,0,0.5,0c0.7,1.1,0.5,2.3,0.5,3.4l0,0c-0.2,0.2-0.3,0.3-0.5,0.5
			C42.8,66.1,42.6,66,42.8,65.5z"/>
		<path class="st82" d="M62,49.7c0.3,2.3-1.6,2.3-3,3C59.8,51.5,60.8,50.5,62,49.7z"/>
		<path class="st83" d="M34.9,64c1.5,1.5,3.9,1.4,5.2,3.2c0.4,0.5,1.3,1.4,1.7-0.2c0.4-0.4,0.9-0.5,1.4-0.2c0.3,0.2,0.4,0.6,0.4,0.9
			c-0.1,0.7-1.4,0.8-0.8,1.7l0,0c-2.1,0.6-3.7-0.3-5.2-1.5c-0.7,1.5,0.7,2.3,0.8,3.5c-0.7,0-1.2-0.3-1.5-1c-0.5-0.4,0-1.1-0.5-1.5
			l0,0c-0.3-0.6-1-0.3-1.4-0.5C34.9,67,34.9,65.5,34.9,64z"/>
		<path class="st46" d="M34.9,68.4c0.4-0.1,0.5-0.9,1.1-0.7c0.5,0.2,0.3,0.8,0.4,1.2c-0.5,0-1,0-1.4,0
			C34.9,68.8,34.9,68.6,34.9,68.4z"/>
		<path class="st83" d="M34.9,62.1c1,0.5,0.9,1,0,1.4C34.9,63.1,34.9,62.6,34.9,62.1z"/>
		<path class="st46" d="M36.4,69c0.6,0.4,0.5,0.9,0.5,1.5C35.5,70.3,36.5,69.5,36.4,69z"/>
		<path class="st66" d="M117.2,61.1c1.8-1.1,3.6-2.3,5.4-3.4c0.2-0.2,0.4-0.2,0.6-0.2c0.3,0.1,0.6,0.3,0.4,0.7
			c-4.9,2.1-8.2,6.3-12.3,9.4l0,0c-0.3-0.4-1-0.5-1.1-1.1c0.1-0.8,0.8-1,1.3-1.3c1.1-0.6,2.1-1.4,3.1-2.2
			C115.5,62.3,116.2,61.4,117.2,61.1z"/>
		<path class="st7" d="M123.6,58.1c-0.2-0.2-0.3-0.3-0.5-0.5c0.4-1.6,1.5-1.9,3-1.5c2.7-0.7,4.9,1.1,7.4,1.7
			c0.6,0.1-0.1,0.9-0.4,1.3c-0.8-0.5-1.7-1-2.5-1.5c-0.2,0.2-0.3,0.2-0.5,0C127.8,56.5,125.7,57.3,123.6,58.1z"/>
		<path class="st84" d="M124.6,61.6c0,0.2,0,0.3,0,0.5c0,1.1-0.5,1.5-1.5,1c0-0.2,0-0.3,0-0.5c-0.1-0.7-0.3-1.3,0.1-2.1
			c0.2-0.3-0.3-0.9,0.5-1.2c0.8-0.2,1.1,0.4,1.3,0.8c0.4,0.7-0.5,0.6-0.7,0.9c-0.1,0.1-0.2,0.2-0.3,0.3
			C124.2,61.4,124.4,61.5,124.6,61.6z"/>
		<path class="st53" d="M132,60.1c-0.9,0-1.7-0.2-2.7-1.3C130.9,58.7,131.7,58.8,132,60.1L132,60.1z"/>
		<path class="st70" d="M130,57.6c0.2,0,0.3,0,0.5,0c-0.4,0.6-1,0.5-2.1,0.1C129.3,57.7,129.7,57.6,130,57.6z"/>
		<path class="st73" d="M110.3,66.5c0.6,0,1,0.3,1,1c-2.3,1.6-4.6,3-7.4,3.5c-0.6,0.5-1.1,1.1-2,0.5c-1.3,0.4-2.6,0.5-4,0.5
			c-1.7,2-3.9,0.8-5.9,0.8c-0.9-0.1-1.9-0.3-3-0.5c0.9,1.3,2.3,1.3,3.4,1.8c0.4,0.2,0.8,0.4,1,0.9c0,0.2,0,0.3,0,0.5
			c-0.5,0.6-1.4,0.5-2,1c-0.8-0.2-1.6-0.3-2.5-0.5c-0.5-0.5-1-1-1.5-1.5c-2.4-1.5-2.9-4.6-4.9-6.4c0-1,0.7-1.5,1.4-2
			c0.7-0.4,1.4-0.1,2.1-0.1c1,0.1,1.9,0.4,2.6,1c0.2,0.1,0.4,0.3,0.6,0.3c0.7,0.2,1.8-0.2,1.8,1.1c0,1.1-1,1.1-1.8,1.3
			c0.8,0.5,1.6,0.6,2.4,0.8c1.5,0.4,3,0.3,4.5,0.2c1.1-0.1,2.3-0.2,3.4-0.3c2.1-0.5,4.1-0.8,6.1-1.7
			C107.5,68.1,108.5,66.4,110.3,66.5z"/>
		<path class="st79" d="M92.1,72.4c1.9-0.5,4,0.7,5.9-0.5c0.2,1.1,1.3,1.2,2.2,1.8c-2.4,1-4.6,0.6-6.7,1.2c-0.4,0-0.8-0.1-1-0.5
			C92.1,73.8,91.7,73.2,92.1,72.4z"/>
		<path class="st60" d="M101.9,71.4c0.7-0.2,1.3-0.3,2-0.5c-0.6,0.8,0.7,2.6-1.5,2.5C102.7,72.6,102,72.1,101.9,71.4z"/>
		<path class="st48" d="M91.6,76.4c-0.2-2,1.4-0.5,2-1C93.5,77,92.9,77.3,91.6,76.4z"/>
		<path class="st48" d="M87.6,74.4c0.9,0,1.4,0.5,1.5,1.5C88.2,75.8,87.7,75.3,87.6,74.4z"/>
		<path class="st32" d="M110.8,70.9c-0.5-0.1-1-0.1-0.7-0.8c0.1-0.2,0.6-0.5,0.7-0.4C111.2,70,110.7,70.5,110.8,70.9L110.8,70.9z"/>
		<path class="st85" d="M123.1,63c0.7,0,1.2-0.3,1.5-1c1.6-0.4,3.2-0.7,5.4-1.2c-1.7,1.5-3.9,1-4.9,2.6c-2,0.3-3.4,1.8-5.6,2.9
			C120,64.1,122.4,64.4,123.1,63z"/>
		<path class="st76" d="M88.6,67.5c-0.6-0.8-1.5-1-2.4-1c-1.7-0.8-2-2.3-2-3.9c1.5-0.5-0.2-1,0-1.5c1.1-1.3,2.3-2.6,3.4-3.9
			c0.1,0,0.2-0.1,0.3-0.1c0.6,0.1,1.1,0.5,1.3,1c0.4,1-0.3,2.3,1,3c1,0.6,0.1-0.6,0.5-0.5c1.2-1.7,1.5,0.1,2.2,0.6
			c-0.8,2.4-2.6,4.2-3.4,6.5C89.4,67.8,88.9,67.7,88.6,67.5z"/>
		<path class="st86" d="M82.4,60.8c-0.8-0.9-2.6-1.1-2.1-2.4c0.3-0.9,2-0.1,2.3,0.1C84,59.2,81.8,59.8,82.4,60.8z"/>
		<path class="st75" d="M84.2,62.6c1.1,1.1,0.9,2.9,2,3.9c-0.8,0.1-1.4-0.1-2.1-0.5c-0.2-0.8-0.4-1.6-0.6-2.3
			C83.2,62.9,83.4,62.6,84.2,62.6z"/>
		<path class="st87" d="M80.2,51.2c1.6,0.9,2.3,2.3,2.9,4.2c-1.1-0.3-1.1-1.6-2-1.7l0,0c-0.3-0.5-0.6-1-1-1.5
			C80.2,51.9,80.2,51.6,80.2,51.2z"/>
		<path class="st75" d="M80.2,52.2c0.7,0.3,1,0.8,1,1.5C80.6,53.4,80.2,52.9,80.2,52.2z"/>
		<path class="st76" d="M60,54.7c0.7-0.5,1.3-1,2-1.5c0.3,0.2,1.8-0.4,0.7,0.8c-0.7,0.7-1.8,1.1-2.7,1.7c-0.2,0.2-0.3,0.2-0.5,0
			C59.7,55.3,59.9,55,60,54.7z"/>
		<path class="st88" d="M56.6,60.1c-1-1.4,1.4-1.7,1-3c0.7,0.1,1.1,0.4,0.6,1.1C57.6,58.9,57.1,59.5,56.6,60.1z"/>
		<path class="st89" d="M59.5,55.7c0.2,0,0.3,0,0.5,0c-0.1,0.4-0.1,0.9-0.6,0.7C59,56.2,59.2,55.9,59.5,55.7z"/>
		<path class="st55" d="M70.4,55.2c-0.5,0.2-1,0.3-1.5,0.5C69.1,54.6,69.6,54.3,70.4,55.2z"/>
		<path class="st10" d="M46.7,65c0.4-1.8,2.2-2.1,3.5-3c0.8-0.2,1.7-0.3,2.5-0.5c0,0.2,0,0.3,0,0.5C50.7,63.1,49.2,65,46.7,65z"/>
		<path class="st46" d="M42.8,69.5c-1.1-0.9-0.2-1.2,0.5-1.5c0.4-0.4,0.5-1.3,1.5-1h0c0,0.5,0,1,0,1.5
			C44.2,69.1,43.6,69.4,42.8,69.5z"/>
		<path class="st76" d="M51.1,59.6c0,0.8-0.1,1.6-1,2l0,0c-0.5-0.3-1-0.7-0.6-1.3C49.9,59.6,50.4,59.3,51.1,59.6L51.1,59.6z"/>
		<path class="st81" d="M84.2,45.3c0.5-0.7,1-1.3,0-2c0.2-0.2,0.3-0.2,0.5,0c2,0.7,3.1,2.6,4.9,3.5c0,1.2,0.4,1.8,1.6,2.3
			c1.2,0.5,2.1,1.6,1.8,3.1c-1,0.5-1.3-1.1-2.2-0.7c-1.9,0.9-2.5-1.2-3.7-1.7c-0.4-0.2-0.5-0.6-0.5-1c-0.3-0.3,0-0.5,0.2-0.7
			c0.5-0.7-0.1-1-0.5-1.4c-0.4-0.1-0.8,0.4-1.2,0.1C84.8,46.3,84.5,45.8,84.2,45.3z"/>
		<path class="st75" d="M91.1,51.2c1.1-0.5,1.2,0.9,2,1c0,0.2,0,0.3,0.1,0.5c0.8,0.5,1.4,1.4,2.4,1.5c0.3,1.9,1.6,2.9,3,4
			c0,0.1,0,0.3,0,0.4c-1.1,0.1-2-0.6-3-1c-0.8,0.3-1.3-0.1-1.8-0.6c-0.4-0.4-0.5-1.4-1.4-0.6c-0.3,0.1-0.7,0-0.9-0.2
			c-0.4-0.5-0.4-1.1-0.2-1.7C92.2,53.4,90.6,52.3,91.1,51.2z"/>
		<path class="st81" d="M95.5,54.2c-1.5,0.6-1.8-0.7-2.4-1.5C94.3,52.6,94.8,53.5,95.5,54.2z"/>
		<path class="st11" d="M97.1,54.5c0.2,0.2,0.5,0.3,0.6,0.6c0.1,0.3-0.2,0.4-0.4,0.2c-0.2-0.1-0.4-0.4-0.6-0.6
			C96.8,54.6,96.9,54.6,97.1,54.5z"/>
		<path class="st28" d="M84.7,43.3c-0.2,0-0.3,0-0.5,0c-1-0.7-2-1.3-3-2C82.6,41.7,84.3,41.4,84.7,43.3z"/>
		<path class="st68" d="M135.9,59.6c0.5-0.2,1-0.3,1.5-0.5c1.2,0.6,2.2,1.6,2.8,2.8c0.5,1.1-0.5,0.4-0.8,0.6c-1.4-0.2-1.9-2-3.5-2
			C135.9,60.3,135.9,59.9,135.9,59.6z"/>
		<path class="st90" d="M138.4,49.7c0,1.4,1.5,1.8,2,3C137.9,52.2,137.4,51.5,138.4,49.7z"/>
		<path class="st12" d="M149.7,58.1c-0.2,1.2,0.6,2,1,3c-0.3,1.1-1.4,1.6-2,2.5c-1.3-0.4-1.9-1.1-1.5-2.5
			C147.2,59.4,148.3,58.6,149.7,58.1z"/>
		<path class="st77" d="M147.3,61.1c0.5,0.8,1,1.6,1.5,2.5c1,1.9-1.6,1.7-1.7,2.9c-1.4-0.7-0.3-1.6-0.3-2.4c0.1-0.7-0.2-1.4-0.5-2
			c-0.3-0.6-0.1-0.9,0.5-0.9C147,61.1,147.1,61.1,147.3,61.1z"/>
		<path class="st61" d="M152.2,69.5c0,0.1,0,0.2,0,0.2c-0.2,0.7-0.3,1.7-1.5,1.3c-0.6-0.2-0.4-0.3-0.3-0.8
			C150.6,68.8,151.3,68.9,152.2,69.5L152.2,69.5z"/>
		<path class="st61" d="M144.8,62.6c0.2,0.2,0.3,0.3,0.5,0.5c-0.4,0.5-0.8,0.4-1.1,0c-0.1-0.1-0.1-0.4-0.2-0.6
			C144.3,62.5,144.6,62.5,144.8,62.6z"/>
		<path class="st91" d="M144.8,52.2c0.7-0.2,1.6-0.5,1.6,0.5c0,1.1-0.9,0.8-1.6,0.5c-0.2-0.3-0.3-0.6-0.5-1
			C144.5,52.2,144.7,52.2,144.8,52.2z"/>
		<path class="st61" d="M134.8,46.6c-0.1,0.1-0.1,0.4-0.2,0.4c-0.1,0-0.3-0.1-0.4-0.2c0.1-0.1,0.1-0.4,0.2-0.4
			C134.5,46.5,134.6,46.6,134.8,46.6z"/>
		<path class="st78" d="M114.7,63.1c-0.6,1.3-1.9,1.7-3,2.5c-0.4-0.2-0.8-0.3-1.2-0.1c-0.6,0.2-1.3,0.7-1.8,0.1
			c-0.6-0.8,0.2-1.3,0.5-2c0.2-0.4,0.4-0.8,0.8-1c0.3-0.3,0.8-0.1,1.2-0.4c0.5-0.3,1-0.7,1.5-1C114.3,60.9,114.3,62.2,114.7,63.1z"
			/>
		<path class="st92" d="M114.7,63.1c0.3-1-2.3,1.4-1-0.8c0.6-1-1-0.5-1-1.1c0.5-1,1.5-1.3,2.5-1.5c1.2-0.3,1.1,1.3,2,1.5
			C116.6,62,116,62.9,114.7,63.1z"/>
		<path class="st68" d="M114.3,56.6c0.7-0.8-1.6-1.4-0.2-2.3c0.5-0.3,0.7-1.6,1.6-0.6c0.5,0.6,1,1.3-0.4,1.6
			c-0.3,0.1-0.4,0.8-0.5,1.3l-0.2,0L114.3,56.6z"/>
		<path class="st17" d="M111.3,62.1c-0.2,0.4-0.6,0.5-1,0.5c-0.5,0.3-1,0.4-1.5,0c0.1-0.9,1.1-0.5,1.5-1
			C110.6,61.7,111,61.9,111.3,62.1z"/>
		<path class="st45" d="M88.6,67.5c0.6,0,1.4-0.3,1.3-0.8c-0.6-2.5,1-3.6,2.7-4.7c0.1-0.1,0-0.6,0-0.9c0.1-0.1,0.2-0.1,0.3-0.2
			c0.8-0.2,1.5,0.3,2.2,0.2c0.7,0.7,0.5,2,1.7,2.5c0.6,0.2,0.7-0.1,0.7-0.5c0.7-0.8,1.1,0.7,1.8,0.2c1.4-0.2,1.6,0.8,1.9,1.8
			c0.3,1.1-0.1,1.7-1.1,2.2c-0.8,0.3-1.4,0.8-1.8,1.6c-0.3,0.8,0.2,0.7,0.8,0.6c0.6-0.1,1.4-0.6,1.8,0.1c0.5,0.8-0.5,1-0.9,1.4
			c-1.1,0-2.3,0-3.4,0c-2.2-0.4-1.6-1.7-0.9-3c0.4-0.7,1.4-1.8-0.6-1.8c-0.2-0.1-0.3-0.3-0.4-0.5c-0.2-0.3-0.1-0.9-0.7-0.8
			c-0.4,0.1-0.1,0.5-0.2,0.8c-0.1,0.6-0.4,0.9-0.9,1.2c-0.7,0.6-0.6,1.3,0.1,1.8c1.6,1.5,0.7,2-0.9,2.4c-1.5-0.1-2.9-0.4-3.9-1.8
			c0.9-0.7,2.4,0.6,2.9-1C90.3,67.5,89.2,68.5,88.6,67.5z"/>
		<path class="st13" d="M99,69.9c-0.5,0.8-1.3,0.3-1.7,0.1c-0.4-0.3,0.2-0.8,0.3-1.3c0.4-0.9,0.9-1.7,1.9-2.1
			c0.6-0.2,1.6-0.2,1.2-1.4c-0.3-0.9-0.2-2-1.7-1.8c-0.6-1-0.4-1.8,0.9-1.8c0.7,0,1.4-0.3,2.1-0.2c0,0.7,0,1.4,1,1.5l0,0
			c0.3,0.3-0.2,0.9,0.4,1c0.6,0.6,1.4,0.5,2.1,0.9c0.3,0.5,0,0.9-0.2,1.3c-0.3,0.5-0.7,0.9-1.2,1.2C102.1,67.7,100.4,68.7,99,69.9z"
			/>
		<path class="st77" d="M94,56.6c0.5,0.3,1,0.7,1.5,1c-0.2,0.7-0.3,1.3-0.5,2c-0.7,0.6-0.7,0.6-1.5-0.4c-0.8,0.4,0.1,1.7-1,1.9l0,0
			c-0.8,0.7-0.5-1.8-1.5-0.5c-1.6-0.4-0.9-1.7-1-2.6c0.3-0.8,0.6-1.5,1.5-1.8c0.3,0,0.7,0,1,0C93,56.3,93.5,56.5,94,56.6z"/>
		<path class="st17" d="M101.9,61.6c-0.6,0.2-0.3,1.7-1.7,0.8c-1.1-0.8-1.3,0.3-1.3,1.2c-0.1,0.3-0.2,0.7-0.4,0.7
			c-0.5,0-0.2-0.4-0.3-0.6c-0.1-0.5-0.5-0.5-0.9-0.6c-1.3-1.8,1.3-1.1,1.4-2.3c0.2-1.5,1.1-0.6,1.7,0.1
			C100.9,61.1,101.7,60.9,101.9,61.6z"/>
		<path class="st79" d="M92.6,61.1c0.2-1.2,0-2.7,1.5-3.1c1.4,0.1-1.1,1.9,1,1.7c0.8,0.5,0.1,1,0,1.5C94.2,63.2,93.4,60.4,92.6,61.1
			z"/>
		<path class="st92" d="M103.9,67c0.3-0.3,0.7-0.7,1-1c0.2-0.2,0.5-0.3,0.8-0.3c0.8,0,0.9-0.1,0.6-0.7c1,0-0.9-2.8,1.5-1.5
			c0.7,0.2,1.3-0.7,2,0c-0.2,0.5-0.5,1.1-0.8,1.8c1,0.2,2.1-1.6,2.8,0.2c-0.5,0.3-1,0.7-1.5,1c-1.3,0.8-2.6,1.6-4,2.5
			C105.2,68.8,103.6,69.1,103.9,67z"/>
		<path class="st2" d="M105.4,65c-1,0.2-2,0.3-2.5-1c0.6-0.5,1.1-1.1,2-0.5c1.1,0,0.5,1.1,1,1.5C105.7,65.2,105.5,65.2,105.4,65z"/>
		<path class="st93" d="M105.4,65c0.2,0,0.3,0,0.5,0c0.2,0,0.3,0,0.5,0c0.4,0.8,1.2-0.1,1.7,0.3c-0.7,2.5-2.1,0.4-3.2,0.7
			C105.1,65.7,105.2,65.4,105.4,65z"/>
		<path class="st17" d="M104.9,63.5c-0.7,0.2-1.3,0.3-2,0.5c-0.6-0.3,0-0.7,0-1c0.4-0.1,0.9-0.3,1.3-0.4c0.3-0.1,0.6-0.1,0.9-0.2
			C105.1,62.8,105,63.2,104.9,63.5z"/>
		<path class="st70" d="M109.8,63.5c-0.7-0.2-1.3,0.9-2,0c0.3-0.3,0.7-0.7,1-1c0.5,0,1,0,1.5,0C110.1,62.9,110,63.2,109.8,63.5z"/>
		<path class="st35" d="M156.5,74.1c0.8,0.8,1.7,1.5,2.5,2.4c0.2,0.2-0.2,0.8-0.4,0.7c-1-0.6-2.4-0.6-2.8-2
			C155.7,74.6,156,74.3,156.5,74.1z"/>
		<path class="st18" d="M159.4,76.6c1.7,0.4,2.4,1,2,2.4C160.2,78.7,160.1,77.7,159.4,76.6z"/>
		<path class="st61" d="M155.7,69.5c0.8-0.1,0.8-0.1,1,1C156.2,70.3,155.9,69.9,155.7,69.5z"/>
		<path class="st29" d="M126.1,56.1c-1.1,0.3-2.1,0.7-3,1.5c-0.2,0-0.3,0-0.5,0c-1.1-1.4-2.3-1.1-3.5,0
			C121.8,54.5,123.6,54.2,126.1,56.1z"/>
		<path class="st94" d="M120.7,49.3c0.9,0.8,1.7,1.6,1.5,2.9c-0.7,0.1-1.8-0.4-1.8-0.9C120.5,50.6,120.6,49.9,120.7,49.3z"/>
		<path class="st84" d="M124.6,53.7c0-0.2,0-0.3,0-0.5c2.7-0.2,2.7-0.2,3,1.3C126.5,54.4,125.7,53.5,124.6,53.7z"/>
		<path class="st84" d="M128.6,54.6c1.2-0.6,1.7,0,2.4,0.7C129.7,55.9,129.3,55.3,128.6,54.6z"/>
		<path class="st61" d="M130,52.7c-0.6,0.3-0.8,1.4-1.9,0.6C128.7,52.7,129,51.8,130,52.7L130,52.7z"/>
		<path class="st76" d="M91.1,51.2c-0.1,1,2.2,1.7,0.5,3c-0.2,0.2-0.7,0.5-0.8,0.3c-1-1.5-2.7-1.2-4.1-1.8c-0.8-1.1,0.1-2,0.5-2.9
			c0.3-0.4,0.9-0.6,1-0.2C88.5,51.3,89.9,50.9,91.1,51.2z"/>
		<path class="st95" d="M86.2,56.2c-0.2-1.7-1.6-2.6-2.5-3.8c-0.7-1-1.3-2.1-1.9-3.1c-0.3-0.6-0.4-1,0.5-1c1.5,2.1,2.8,4.4,4.9,5.9
			c0.4-0.2,0.6,0,0.8,0.3c0.3,0.5,0.4,1,0.4,1.6c-0.1,0.5-0.4,0.8-0.7,1.1l0,0C87.1,56.8,86.6,56.5,86.2,56.2L86.2,56.2z"/>
		<path class="st49" d="M87.6,54.7c-0.2-0.2-0.3-0.3-0.5-0.5c-0.2-0.5-0.3-1-0.5-1.5c1.2-0.3,2.4-0.2,3.6,0.1
			c0.8,0.2-0.3,2.1,1.3,1.4c0,0.7,0,1.3,0,2c-0.3,0.5-0.7,1-1,1.5c-0.2-0.1-0.3-0.3-0.5-0.5c-0.3-1.1-0.8-1.9-2-2.1
			C87.9,55,87.8,54.8,87.6,54.7z"/>
		<path class="st74" d="M82.2,48.3c-0.4,0.2-0.5,0.6-0.5,1c-0.8-2.1-2.7-3-4.5-4.2c1.1-0.1,2.3-0.7,3,0.8
			C80.9,46.6,81.6,47.4,82.2,48.3z"/>
		<path class="st74" d="M87.1,48.3c-0.2,0.2-0.3,0.3-0.5,0.5c-0.5-0.7-1-1.3-1.5-2c0.8,0.1,0.1-2,1.5-1
			C86.3,46.7,87.6,47.3,87.1,48.3z"/>
		<path class="st95" d="M86.1,56.1c0,0.7-0.4,0.9-0.9,0.4c-0.7-0.8-1.4-1.8-2.2-2.9C84.9,53.8,84.9,55.7,86.1,56.1L86.1,56.1z"/>
		<path class="st96" d="M53.7,58.2c-0.6-1.6-0.3-2.5,1.2-2.9c0.5-0.1,1.3-0.2,1.3,0.2C56.3,57.2,54.5,57.1,53.7,58.2z"/>
		<path class="st19" d="M51.1,59.6c-0.8,0.4-1.8,0.7-1,2c-0.7-0.1-1.5,0.2-2.2-0.3c1.1-1.1,2.2-2.2,3.3-3.4
			C52,58.6,51.2,59.1,51.1,59.6z"/>
		<path class="st55" d="M43.3,67c-0.5,0-1,0-1.5,0c-0.1-0.7-1.5-0.2-1.1-1.2c0.5-1.1,1.4,0,2-0.3c0.2,0.2,0.3,0.3,0.5,0.5
			c0,0.2,0,0.3,0,0.5c0.1,0.1,0.2,0.2,0.1,0.3C43.3,66.9,43.3,67,43.3,67z"/>
		<path class="st58" d="M43.3,57.1c1.5-0.9,2.2,0.9,3.5,1C45.3,58.8,44,58.9,43.3,57.1z"/>
		<path class="st45" d="M43.7,65.5c1.3,0.1,0.4-1.7,1.5-1.7C45.2,65.8,45.2,65.8,43.7,65.5L43.7,65.5z"/>
		<path class="st54" d="M43.3,67c0-0.2,0-0.3,0-0.5c0.5,0,1.1-0.1,1.5,0.5c-0.5,0.3-1,0.7-1.5,1C43.3,67.7,43.3,67.3,43.3,67z"/>
		<path class="st76" d="M92.1,70.9c0.8-0.6,2.4-1,0.2-2.1c-1.3-0.6-0.3-1.8,0-2.7c0.1,0,0.1,0.1,0.2,0.1c0.1,0.1,0.1,0.1,0.1,0.2
			c0.7,0.4,1.6,0.4,1.8,1.5c0.4-0.8,0.2-1.5,0.6-2c0.5-0.7,1.1-0.7,1.8-0.1c0.7,0.6,0.2,1-0.1,1.4c-0.9,1.2-1.6,2.3-0.2,3.6
			C95,71.4,93.6,71.4,92.1,70.9z"/>
		<path class="st7" d="M103.9,67c0.3,1.3,1.8,1.1,2.5,2c-2,1.3-4.3,1.3-6.4,2c0.2-0.4,0.5-0.8,0.8-1.4c-0.7,0.2-1.3,0.3-1.8,0.4
			C99.9,67.7,101.8,67.2,103.9,67z"/>
		<path class="st48" d="M92.1,72.4c0.3,0.6,0.6,1.3,0.5,2c-1.7-0.4-3.7-0.2-4.1-2.8C89.7,71.7,91,71.7,92.1,72.4z"/>
		<path class="st45" d="M90.6,57.1c0,0.2,0,0.3,0,0.5c0.1,1-0.4,2.1,0.5,2.9c0,0.5,0,1,0,1.5c-2.2-0.6-2.9-1.9-2-3.9
			C89.4,57.6,89.4,56.5,90.6,57.1z"/>
		<path class="st97" d="M90.6,57.1c-0.9-0.3-0.6,1.2-1.5,1c-0.5-0.3-1-0.7-1.5-1c0-0.4,0.1-0.8,0.5-1c0.5-0.5-0.4-1,0-1.5
			C89.9,54.5,90.5,55.6,90.6,57.1z"/>
		<path class="st45" d="M88.9,65.9c-1.6-1.2-0.5-2.7-1.4-3.9C91,62.4,88.8,64.3,88.9,65.9z"/>
		<path class="st73" d="M87.1,48.3c-0.1-0.8-1.4-1.4-0.5-2.5c0.5,0.9,1.4,1.6,1.1,2.7c0,0-0.2,0.1-0.2,0
			C87.4,48.5,87.2,48.4,87.1,48.3z"/>
		<path class="st79" d="M94,56.6c-0.7,0.3-1.4,0.8-1.5-0.5c0.1-0.4,0.2-0.8,0.2-1.1C93.7,55.2,93.6,56.1,94,56.6z"/>
		<path class="st59" d="M95,66c0.8,1.2-0.1,2.1-0.5,3.2c-0.2-1.3-1.3-1.8-1.9-2.7c0.3-0.3,0.7-0.7,1-1c0.5-0.4,1-0.4,1.5,0
			C95,65.7,95,65.8,95,66z"/>
		<path class="st98" d="M95,65.5c-0.5,0-1,0-1.5,0c-0.1-0.4-0.8-0.5-0.5-0.9c0.4-0.4,1.1-0.9,1.7-0.7C95.3,64.2,94.9,65,95,65.5z"/>
		<path class="st59" d="M88.1,54.7c0.1,0.6,1,0.8,0.8,1.5c0,0-0.5,0-0.8-0.1c-0.2-0.5-0.3-1-0.5-1.5C87.8,54.7,88,54.7,88.1,54.7z"
			/>
	</g>
</g>
<g>
	<path class="st99" d="M197.4,55c-2.7,0-5.1-0.4-7-1.2s-3.5-2-4.6-3.6c-1.2-1.6-2-3.6-2.6-6c-0.5-2.4-0.8-5.2-0.8-8.3
		c0-3.2,0.3-6,0.8-8.4c0.5-2.4,1.4-4.4,2.6-6c1.2-1.6,2.7-2.8,4.6-3.7s4.2-1.2,7-1.2c9.1,0,13.7,4.6,13.8,13.8H206
		c-0.1-3.2-0.9-5.5-2.3-7c-1.4-1.4-3.5-2.1-6.3-2.1c-1.8,0-3.3,0.3-4.5,0.8c-1.2,0.5-2.2,1.4-3,2.6c-0.8,1.2-1.3,2.7-1.7,4.6
		c-0.3,1.9-0.5,4.1-0.5,6.6c0,2.6,0.2,4.8,0.5,6.6c0.3,1.8,0.9,3.3,1.7,4.5c0.8,1.2,1.7,2.1,3,2.6c1.2,0.5,2.7,0.8,4.5,0.8
		c2.7,0,4.7-0.7,6.2-2c1.4-1.3,2.2-3.6,2.4-6.9h5.2c-0.1,4.6-1.3,8.1-3.6,10.3C205.3,53.9,201.9,55,197.4,55z"/>
	<path class="st99" d="M258.9,17.4h5.6l-11.1,36.7h-5.5L239.5,25l-8.2,29.1H226l-11.2-36.7h5.9l8,29.9l8.1-29.9h5.4l8.8,30.3
		L258.9,17.4z"/>
	<path class="st99" d="M290.3,35.1c1.4,0.3,2.5,0.8,3.3,1.4c0.9,0.6,1.5,1.2,2,2c0.5,0.8,0.8,1.6,1,2.5c0.2,0.9,0.3,2,0.3,3.1
		c0,1.6-0.2,3-0.5,4.3c-0.3,1.3-1,2.3-2,3.2c-1,0.9-2.5,1.5-4.3,2c-1.9,0.5-4.4,0.7-7.6,0.7H270v-37h12.7c2.7,0,4.9,0.2,6.6,0.7
		c1.7,0.5,3,1.1,4,2c1,0.8,1.6,1.9,2,3c0.4,1.2,0.5,2.5,0.5,3.9c0,1-0.1,1.9-0.2,2.7c-0.2,0.9-0.4,1.6-0.8,2.3
		c-0.4,0.7-1,1.3-1.7,1.9C292.4,34.3,291.5,34.7,290.3,35.1z M282.6,21.7h-7.3V33l7.3,0.1c1.6,0,2.9-0.1,4-0.4
		c1-0.2,1.8-0.6,2.4-1.1c0.6-0.5,1-1.1,1.2-1.8c0.2-0.7,0.3-1.5,0.3-2.5c0-1-0.1-1.8-0.4-2.5c-0.3-0.7-0.7-1.3-1.3-1.8
		c-0.6-0.5-1.4-0.8-2.4-1.1C285.4,21.8,284.1,21.7,282.6,21.7z M275.3,49.8h7.3c1.9,0,3.4-0.1,4.6-0.4c1.2-0.2,2.1-0.6,2.8-1.1
		s1.1-1.2,1.3-2c0.2-0.8,0.3-1.7,0.3-2.8c0-1-0.1-1.9-0.4-2.7c-0.3-0.8-0.7-1.4-1.4-2c-0.7-0.5-1.6-0.9-2.8-1.2s-2.7-0.4-4.5-0.4
		h-7.3V49.8z"/>
	<path class="st99" d="M180.8,100.4v-4.7c1.2-1,2.2-1.9,3.2-2.7c1-0.8,2.1-1.8,3.3-2.9c1.2-1.1,2.5-2.3,3.8-3.5
		c1.1-1.1,2.2-2.1,3.2-3c1-1,1.9-1.9,2.7-2.9c0.8-1,1.4-1.9,1.8-3c0.4-1,0.7-2.1,0.7-3.3c0-2.2-0.6-3.9-1.7-4.9
		c-1.2-1-2.7-1.5-4.8-1.5c-2.2,0-3.9,0.5-5.1,1.5s-1.8,2.7-1.8,4.9h-5.3c0-3.8,1-6.6,3.1-8.4c2.1-1.8,5.1-2.8,9.1-2.8
		c3.8,0,6.7,0.9,8.8,2.7c2,1.8,3,4.6,3,8.3c0,1.5-0.2,2.9-0.6,4.1c-0.4,1.3-1,2.4-1.7,3.6c-0.7,1.1-1.6,2.2-2.5,3.2
		c-1,1-2,2.1-3,3.1c-1.1,1.1-2.2,2.1-3.3,3c-1.1,0.9-2,1.7-2.9,2.4c-1,0.8-1.9,1.5-2.8,2.1l16.8-0.2v4.5H180.8z"/>
	<path class="st99" d="M224.7,101c-2.6,0-4.8-0.4-6.6-1.1c-1.8-0.8-3.2-1.9-4.2-3.4s-1.8-3.4-2.3-5.7c-0.4-2.3-0.7-5-0.7-8.1
		c0-3.3,0.2-6.1,0.7-8.5c0.4-2.4,1.2-4.4,2.3-6c1.1-1.6,2.5-2.8,4.2-3.5c1.8-0.8,4-1.2,6.6-1.2s4.8,0.4,6.6,1.2
		c1.8,0.8,3.2,2,4.2,3.5c1.1,1.6,1.8,3.6,2.3,6c0.4,2.4,0.7,5.2,0.7,8.5c0,3.1-0.2,5.8-0.7,8.1c-0.4,2.3-1.2,4.2-2.3,5.7
		s-2.5,2.7-4.2,3.4C229.5,100.7,227.3,101,224.7,101z M224.7,96.3c1.6,0,2.9-0.2,4-0.7c1.1-0.5,2-1.3,2.6-2.4
		c0.7-1.1,1.2-2.5,1.4-4.3c0.3-1.8,0.4-3.9,0.4-6.4c0-2.7-0.1-4.9-0.4-6.8c-0.3-1.8-0.8-3.3-1.4-4.5c-0.7-1.1-1.6-2-2.6-2.5
		c-1.1-0.5-2.4-0.8-4-0.8c-1.5,0-2.9,0.3-3.9,0.8c-1.1,0.5-1.9,1.3-2.6,2.5c-0.7,1.1-1.2,2.6-1.5,4.5c-0.3,1.8-0.5,4.1-0.5,6.8
		c0,2.5,0.2,4.6,0.5,6.4c0.3,1.8,0.8,3.2,1.5,4.3c0.7,1.1,1.5,1.9,2.6,2.4C221.8,96.1,223.2,96.3,224.7,96.3z"/>
	<path class="st99" d="M253.8,63.8h4.3v36.7h-5.3V69.1l-7.2,3.5v-4.9L253.8,63.8z"/>
	<path class="st99" d="M278,100.5h-5.3c0-2.1,0.2-4.2,0.6-6.3c0.4-2,0.9-4,1.5-5.8c0.6-1.9,1.3-3.6,2.1-5.3s1.6-3.2,2.4-4.6
		c1.9-3.3,4-6.4,6.4-9.2H267v-4.7h24.5v4.7c-2.5,2.9-4.7,6.1-6.7,9.5c-1.2,1.9-2.1,3.6-2.8,5.2c-0.7,1.5-1.3,3.2-1.9,4.9
		s-1.1,3.6-1.4,5.6C278.2,96.4,278,98.4,278,100.5z"/>
</g>
</svg>
